<?xml version="1.0" encoding="iso-8859-1"?>
<!-- Generator: Adobe Illustrator 16.0.0, SVG Export Plug-In . SVG Version: 6.00 Build 0)  -->
<!DOCTYPE svg PUBLIC "-//W3C//DTD SVG 1.1//EN" "http://www.w3.org/Graphics/SVG/1.1/DTD/svg11.dtd">
<svg version="1.1" xmlns="http://www.w3.org/2000/svg" xmlns:xlink="http://www.w3.org/1999/xlink" x="0px" y="0px" width="800px"
	 height="800px" viewBox="0 0 800 800" style="enable-background:new 0 0 800 800;" xml:space="preserve">
<g id="Background">
	<g>
		<g>
			<radialGradient id="SVGID_1_" cx="400" cy="400" r="400" gradientUnits="userSpaceOnUse">
				<stop  offset="0" style="stop-color:#E9F9F8"/>
				<stop  offset="1" style="stop-color:#A2E6DF"/>
			</radialGradient>
			<rect style="fill:url(#SVGID_1_);" width="800" height="800"/>
			<g>
				<g>
					<circle style="opacity:0.2;fill:#FFFFFF;" cx="88.877" cy="193.877" r="9.877"/>
					<circle style="opacity:0.2;fill:#FFFFFF;" cx="685.877" cy="586.877" r="12.877"/>
					<circle style="opacity:0.2;fill:#FFFFFF;" cx="109.877" cy="40.877" r="12.877"/>
					<circle style="opacity:0.2;fill:#FFFFFF;" cx="732.918" cy="243.918" r="21.918"/>
					<circle style="opacity:0.2;fill:#FFFFFF;" cx="650.918" cy="112.918" r="11.918"/>
					<circle style="opacity:0.2;fill:#FFFFFF;" cx="44.918" cy="365.918" r="11.918"/>
				</g>
				<g>
					<g style="opacity:0.5;">
						
							<image style="overflow:visible;" width="477" height="477" xlink:href="3AD27B9F.png"  transform="matrix(0.24 0 0 0.24 124 108)">
						</image>
					</g>
					<g style="opacity:0.7;">
						
							<image style="overflow:visible;" width="398" height="398" xlink:href="3AD27B9D.png"  transform="matrix(0.24 0 0 0.24 126 295)">
						</image>
					</g>
					<g style="opacity:0.7;">
						
							<image style="overflow:visible;" width="477" height="477" xlink:href="3AD27BA3.png"  transform="matrix(0.24 0 0 0.24 666 378)">
						</image>
					</g>
					<g style="opacity:0.7;">
						
							<image style="overflow:visible;" width="477" height="477" xlink:href="3AD27BA5.png"  transform="matrix(0.24 0 0 0.24 476 62)">
						</image>
					</g>
					<g>
						
							<image style="overflow:visible;" width="398" height="398" xlink:href="3AD27BA7.png"  transform="matrix(0.24 0 0 0.24 67 476)">
						</image>
					</g>
					<g>
						
							<image style="overflow:visible;" width="398" height="398" xlink:href="3AD27BA4.png"  transform="matrix(0.24 0 0 0.24 292 32)">
						</image>
					</g>
				</g>
				<g>
					<circle style="fill:#FFFFFF;" cx="121.5" cy="123.5" r="18.5"/>
					<circle style="fill:#FFFFFF;" cx="97.5" cy="362.5" r="8.5"/>
					<circle style="fill:#FFFFFF;" cx="81.5" cy="253.5" r="8.5"/>
					<circle style="fill:#FFFFFF;" cx="595.5" cy="157.5" r="8.5"/>
					<circle style="fill:#FFFFFF;" cx="728.5" cy="540.5" r="8.5"/>
					<circle style="fill:#FFFFFF;" cx="741.5" cy="65.5" r="8.5"/>
					<circle style="fill:#FFFFFF;" cx="689.418" cy="376.418" r="6.418"/>
					<circle style="fill:#FFFFFF;" cx="473.418" cy="224.418" r="6.418"/>
					<circle style="fill:#FFFFFF;" cx="248.418" cy="135.418" r="6.418"/>
					<circle style="fill:#FFFFFF;" cx="87.418" cy="546.418" r="6.418"/>
					<circle style="fill:#FFFFFF;" cx="58.418" cy="94.418" r="6.418"/>
					<circle style="fill:#FFFFFF;" cx="756.418" cy="295.418" r="6.418"/>
					<circle style="fill:#FFFFFF;" cx="580.418" cy="50.418" r="6.418"/>
					<circle style="fill:#FFFFFF;" cx="489.418" cy="547.418" r="6.418"/>
					<circle style="fill:#FFFFFF;" cx="714.5" cy="169.5" r="18.5"/>
					<circle style="fill:#FFFFFF;" cx="545.5" cy="295.5" r="18.5"/>
					<circle style="fill:#FFFFFF;" cx="434.5" cy="98.5" r="18.5"/>
					<polygon style="fill:#FFFFFF;" points="73.382,474.33 64.019,462.285 61.206,477.279 59.842,462.084 49.368,473.178 
						56.436,459.658 41.627,463.328 54.882,455.773 40.44,450.856 55.675,451.668 46.185,439.723 58.563,448.642 57.037,433.462 
						62.627,447.656 69.55,434.063 66.579,449.026 79.753,441.332 69.164,452.314 84.406,452.965 69.56,456.479 82.031,465.266 
						67.642,460.195 					"/>
					<polygon style="fill:#FFFFFF;" points="671.135,470.421 663.321,460.371 660.975,472.882 659.836,460.203 651.097,469.46 
						656.993,458.179 644.637,461.241 655.698,454.938 643.646,450.834 656.359,451.512 648.439,441.544 658.769,448.986 
						657.495,436.32 662.16,448.164 667.938,436.821 665.457,449.308 676.45,442.887 667.614,452.051 680.333,452.594 
						667.944,455.525 678.352,462.857 666.344,458.627 					"/>
					<polygon style="fill:#FFFFFF;" points="388.727,174.873 380.27,163.995 377.73,177.536 376.498,163.813 367.04,173.833 
						373.421,161.622 360.047,164.937 372.02,158.114 358.976,153.673 372.736,154.407 364.163,143.618 375.343,151.673 
						373.965,137.964 379.014,150.783 385.267,138.507 382.582,152.021 394.48,145.071 384.917,154.989 398.683,155.578 
						385.274,158.751 396.538,166.687 383.542,162.107 					"/>
					<polygon style="fill:#FFFFFF;" points="662.727,271.873 654.27,260.995 651.73,274.536 650.498,260.813 641.039,270.833 
						647.422,258.622 634.047,261.937 646.02,255.114 632.976,250.673 646.736,251.407 638.163,240.618 649.344,248.673 
						647.965,234.964 653.014,247.783 659.268,235.507 656.582,249.021 668.48,242.071 658.918,251.989 672.683,252.578 
						659.273,255.751 670.538,263.687 657.542,259.107 					"/>
					<polygon style="fill:#FFFFFF;" points="238.727,90.873 230.27,79.995 227.73,93.536 226.498,79.813 217.039,89.833 
						223.422,77.622 210.047,80.937 222.02,74.114 208.976,69.673 222.736,70.407 214.163,59.618 225.344,67.673 223.965,53.964 
						229.014,66.783 235.268,54.507 232.582,68.021 244.48,61.071 234.918,70.989 248.683,71.578 235.273,74.751 246.538,82.687 
						233.542,78.107 					"/>
				</g>
			</g>
		</g>
		<g>
			<g>
				<path style="fill:#FFFFFF;" d="M297,571.058V571c-2,0-3.34,0.006-5,0.015c-1.659-0.009-3-0.015-5-0.015v0.058
					c-157.765,1.795-207.702,45.878-287,69.812V800h289.996h4.01H800V656C636,656,513,573.526,297,571.058z"/>
				<g>
					<path style="fill:#A2E6DF;" d="M631.666,641c-29.417-8.405-115.334-22.667-104,17.333s121.333,37.333,162,37.333
						s84.666-21.333,40-29.333S659.666,649,631.666,641z"/>
					<g>
						<path style="fill:#DFEBE9;" d="M729.666,666.333c-44.666-8-70-17.333-98-25.333c-29.417-8.405-115.334-22.667-104,17.333
							c0.896,3.16,2.41,6.052,4.454,8.702c49.065-16.003,172.835,14.055,200.615,21.17
							C751.036,681.261,757.199,671.265,729.666,666.333z"/>
					</g>
				</g>
			</g>
			<path style="fill:#DFEBE9;" d="M319.307,579.667c-24.973,0-77.64-1.334-104.973,19.333s0,53.334,35.333,49.334s53.203-8,71.935-6
				S435.448,656.333,431.891,619S339.981,579.667,319.307,579.667z"/>
		</g>
	</g>
</g>
<g id="Objects">
	<g>
		<g>
			<path style="fill:#705165;" d="M397.596,761.97h0.746v-0.937c0-0.987,0.121-1.761,0.371-2.342c0.246-0.58,0.67-0.998,1.264-1.263
				c0.588-0.261,1.406-0.393,2.436-0.393c1.832,0,2.744,0.444,2.744,1.347c0,0.286-0.1,0.535-0.289,0.741
				c-0.189,0.203-0.414,0.31-0.674,0.31c-0.121,0-0.336-0.023-0.639-0.072c-0.285-0.041-0.547-0.068-0.752-0.068
				c-0.563,0-0.926,0.169-1.09,0.501c-0.158,0.332-0.24,0.81-0.24,1.431v0.745h0.768c1.193,0,1.789,0.361,1.789,1.082
				c0,0.506-0.156,0.831-0.477,0.97c-0.316,0.139-0.756,0.207-1.313,0.207h-0.768v8.299c0,0.615-0.143,1.088-0.443,1.41
				c-0.295,0.33-0.67,0.49-1.143,0.49c-0.439,0-0.809-0.16-1.105-0.49c-0.293-0.322-0.439-0.795-0.439-1.41v-8.299h-0.863
				c-0.467,0-0.826-0.1-1.078-0.315c-0.25-0.207-0.381-0.481-0.381-0.816C396.02,762.343,396.547,761.97,397.596,761.97z"/>
			<path style="fill:#705165;" d="M407.846,769.909v2.618c0,0.632-0.156,1.111-0.453,1.424c-0.299,0.321-0.674,0.477-1.131,0.477
				c-0.459,0-0.83-0.157-1.115-0.483c-0.293-0.318-0.439-0.794-0.439-1.417v-8.726c0-1.407,0.51-2.11,1.525-2.11
				c0.523,0,0.896,0.166,1.129,0.494c0.229,0.332,0.355,0.815,0.381,1.464c0.371-0.648,0.754-1.132,1.146-1.464
				c0.396-0.328,0.918-0.494,1.578-0.494c0.662,0,1.297,0.166,1.916,0.494c0.619,0.332,0.932,0.766,0.932,1.308
				c0,0.384-0.133,0.704-0.396,0.949c-0.266,0.25-0.543,0.371-0.854,0.371c-0.119,0-0.396-0.068-0.834-0.214
				c-0.443-0.139-0.83-0.208-1.164-0.208c-0.457,0-0.832,0.124-1.121,0.358c-0.291,0.245-0.52,0.6-0.68,1.07
				c-0.16,0.476-0.271,1.043-0.33,1.695C407.873,768.174,407.846,768.969,407.846,769.909z"/>
			<path style="fill:#705165;" d="M422.24,768.833h-6.127c0.008,0.706,0.15,1.339,0.432,1.878c0.277,0.544,0.646,0.952,1.111,1.229
				c0.469,0.273,0.975,0.412,1.533,0.412c0.375,0,0.715-0.043,1.025-0.138c0.311-0.082,0.613-0.22,0.9-0.408
				c0.293-0.186,0.557-0.386,0.805-0.602c0.244-0.216,0.561-0.507,0.953-0.873c0.162-0.135,0.391-0.207,0.686-0.207
				c0.322,0,0.58,0.088,0.783,0.264c0.201,0.182,0.297,0.426,0.297,0.745c0,0.287-0.109,0.614-0.326,0.993
				c-0.227,0.384-0.561,0.744-1.012,1.093c-0.445,0.345-1.01,0.641-1.686,0.863c-0.676,0.232-1.455,0.345-2.334,0.345
				c-2.012,0-3.574-0.567-4.688-1.718c-1.121-1.149-1.682-2.708-1.682-4.669c0-0.929,0.141-1.789,0.418-2.579
				c0.271-0.796,0.676-1.469,1.205-2.034c0.527-0.568,1.176-1.005,1.947-1.304c0.771-0.301,1.625-0.452,2.566-0.452
				c1.229,0,2.277,0.256,3.15,0.778c0.877,0.512,1.539,1.18,1.971,1.997c0.434,0.822,0.654,1.654,0.654,2.505
				c0,0.782-0.229,1.296-0.68,1.529C423.695,768.715,423.059,768.833,422.24,768.833z M416.113,767.052h5.68
				c-0.076-1.069-0.365-1.871-0.865-2.401c-0.5-0.531-1.16-0.796-1.979-0.796c-0.777,0-1.422,0.265-1.924,0.81
				C416.525,765.201,416.221,765.998,416.113,767.052z"/>
			<path style="fill:#705165;" d="M435.266,768.833h-6.127c0.008,0.706,0.152,1.339,0.432,1.878c0.277,0.544,0.65,0.952,1.111,1.229
				c0.461,0.273,0.975,0.412,1.533,0.412c0.371,0,0.717-0.043,1.023-0.138c0.313-0.082,0.609-0.22,0.904-0.408
				c0.289-0.186,0.557-0.386,0.803-0.602c0.24-0.216,0.561-0.507,0.949-0.873c0.164-0.135,0.395-0.207,0.688-0.207
				c0.324,0,0.586,0.088,0.785,0.264c0.199,0.182,0.291,0.426,0.291,0.745c0,0.287-0.105,0.614-0.332,0.993
				c-0.215,0.384-0.551,0.744-1.002,1.093c-0.445,0.345-1.012,0.641-1.688,0.863c-0.674,0.232-1.455,0.345-2.336,0.345
				c-2.006,0-3.572-0.567-4.689-1.718c-1.117-1.149-1.676-2.708-1.676-4.669c0-0.929,0.139-1.789,0.416-2.579
				c0.277-0.796,0.676-1.469,1.201-2.034c0.531-0.568,1.18-1.005,1.951-1.304c0.775-0.301,1.631-0.452,2.57-0.452
				c1.221,0,2.271,0.256,3.154,0.778c0.873,0.512,1.531,1.18,1.963,1.997c0.436,0.822,0.654,1.654,0.654,2.505
				c0,0.782-0.229,1.296-0.676,1.529C436.717,768.715,436.08,768.833,435.266,768.833z M429.139,767.052h5.68
				c-0.074-1.069-0.369-1.871-0.865-2.401c-0.504-0.531-1.162-0.796-1.982-0.796c-0.781,0-1.418,0.265-1.92,0.81
				C429.547,765.201,429.246,765.998,429.139,767.052z"/>
			<path style="fill:#705165;" d="M442.123,763.454v0.375c0.588-0.725,1.205-1.262,1.842-1.598c0.631-0.343,1.352-0.516,2.152-0.516
				c0.963,0,1.854,0.251,2.664,0.746c0.814,0.5,1.451,1.226,1.92,2.184c0.473,0.955,0.709,2.087,0.709,3.396
				c0,0.961-0.135,1.849-0.408,2.654c-0.268,0.809-0.645,1.482-1.117,2.032c-0.475,0.539-1.039,0.966-1.68,1.262
				c-0.65,0.29-1.344,0.438-2.088,0.438c-0.893,0-1.646-0.18-2.254-0.538c-0.607-0.354-1.186-0.89-1.74-1.58v4.703
				c0,1.373-0.502,2.065-1.5,2.065c-0.592,0-0.977-0.178-1.172-0.531c-0.186-0.361-0.283-0.875-0.283-1.561v-13.515
				c0-0.597,0.129-1.037,0.385-1.339c0.264-0.289,0.623-0.441,1.07-0.441c0.443,0,0.807,0.152,1.082,0.453
				C441.988,762.45,442.123,762.882,442.123,763.454z M448.262,768.006c0-0.828-0.123-1.537-0.377-2.129
				c-0.25-0.595-0.602-1.047-1.045-1.361c-0.447-0.318-0.947-0.479-1.49-0.479c-0.861,0-1.594,0.341-2.184,1.018
				c-0.596,0.687-0.889,1.685-0.889,3.01c0,1.242,0.291,2.215,0.881,2.906c0.59,0.693,1.314,1.037,2.191,1.037
				c0.52,0,1.006-0.151,1.447-0.449c0.443-0.303,0.801-0.755,1.068-1.36C448.133,769.591,448.262,768.859,448.262,768.006z"/>
			<path style="fill:#705165;" d="M454.563,760.234c-0.438,0-0.805-0.138-1.113-0.402c-0.313-0.271-0.471-0.644-0.471-1.129
				c0-0.445,0.162-0.813,0.479-1.101c0.316-0.282,0.686-0.429,1.105-0.429c0.408,0,0.766,0.131,1.082,0.384
				c0.311,0.264,0.473,0.645,0.473,1.146c0,0.478-0.156,0.855-0.463,1.126C455.35,760.097,454.986,760.234,454.563,760.234z
				 M456.117,763.472v9.056c0,0.623-0.154,1.099-0.449,1.417c-0.303,0.326-0.68,0.483-1.141,0.483c-0.457,0-0.828-0.16-1.113-0.49
				c-0.289-0.335-0.436-0.802-0.436-1.41v-8.966c0-0.619,0.146-1.086,0.436-1.396c0.285-0.318,0.656-0.474,1.113-0.474
				c0.461,0,0.838,0.155,1.141,0.474C455.963,762.476,456.117,762.916,456.117,763.472z"/>
			<path style="fill:#705165;" d="M466.211,773l-2.762-4.55l-1.701,1.604v2.495c0,0.601-0.16,1.065-0.479,1.388
				c-0.311,0.33-0.682,0.49-1.094,0.49c-0.48,0-0.861-0.157-1.135-0.483c-0.275-0.318-0.416-0.794-0.416-1.417v-13.36
				c0-0.69,0.135-1.223,0.4-1.589c0.27-0.365,0.656-0.542,1.15-0.542c0.482,0,0.863,0.163,1.145,0.496
				c0.289,0.325,0.428,0.812,0.428,1.449v7.603l3.523-3.7c0.438-0.453,0.764-0.771,0.998-0.94c0.227-0.164,0.508-0.252,0.834-0.252
				c0.393,0,0.717,0.125,0.984,0.375c0.252,0.248,0.383,0.56,0.383,0.935c0,0.456-0.426,1.072-1.273,1.837l-1.66,1.523l3.213,5.051
				c0.23,0.378,0.406,0.655,0.508,0.851c0.105,0.195,0.156,0.391,0.156,0.56c0,0.5-0.135,0.887-0.408,1.18
				c-0.27,0.284-0.631,0.426-1.068,0.426c-0.389,0-0.682-0.096-0.893-0.31C466.844,773.908,466.561,773.535,466.211,773z"/>
			<path style="fill:#705165;" d="M473.014,774.428c-0.473,0-0.883-0.155-1.227-0.461c-0.344-0.301-0.518-0.73-0.518-1.283
				c0-0.469,0.17-0.87,0.494-1.204c0.332-0.335,0.738-0.504,1.219-0.504s0.889,0.169,1.236,0.497
				c0.336,0.334,0.512,0.741,0.512,1.211c0,0.545-0.176,0.974-0.512,1.281C473.871,774.272,473.471,774.428,473.014,774.428z"/>
			<path style="fill:#705165;" d="M488.586,770.55c0,0.388-0.115,0.807-0.35,1.252c-0.234,0.444-0.588,0.867-1.066,1.269
				c-0.48,0.399-1.076,0.725-1.809,0.967c-0.729,0.246-1.545,0.371-2.451,0.371c-1.938,0-3.449-0.566-4.539-1.691
				c-1.082-1.128-1.623-2.646-1.623-4.541c0-1.289,0.244-2.418,0.744-3.409c0.494-0.984,1.215-1.746,2.156-2.288
				c0.939-0.538,2.068-0.807,3.369-0.807c0.814,0,1.559,0.117,2.238,0.356c0.678,0.233,1.248,0.545,1.721,0.914
				c0.465,0.38,0.826,0.776,1.074,1.199c0.25,0.426,0.373,0.821,0.373,1.192c0,0.373-0.137,0.689-0.418,0.947
				c-0.281,0.265-0.619,0.394-1.014,0.394c-0.264,0-0.479-0.067-0.648-0.201c-0.176-0.135-0.367-0.351-0.58-0.653
				c-0.381-0.577-0.781-1.015-1.201-1.301c-0.416-0.295-0.947-0.439-1.59-0.439c-0.918,0-1.664,0.362-2.236,1.083
				c-0.566,0.722-0.848,1.714-0.848,2.964c0,0.591,0.076,1.136,0.219,1.628c0.143,0.489,0.35,0.912,0.629,1.259
				c0.279,0.35,0.607,0.61,0.998,0.793c0.393,0.184,0.82,0.271,1.283,0.271c0.633,0,1.166-0.146,1.613-0.436
				c0.457-0.289,0.85-0.734,1.191-1.334c0.193-0.348,0.398-0.62,0.615-0.82c0.223-0.2,0.498-0.303,0.818-0.303
				c0.387,0,0.701,0.147,0.953,0.438S488.586,770.225,488.586,770.55z"/>
			<path style="fill:#705165;" d="M502.104,768.063c0,0.931-0.148,1.792-0.432,2.582c-0.297,0.789-0.715,1.464-1.27,2.026
				c-0.545,0.567-1.209,1.001-1.971,1.304c-0.77,0.297-1.627,0.452-2.582,0.452c-0.949,0-1.801-0.155-2.559-0.461
				c-0.754-0.301-1.418-0.741-1.965-1.305c-0.557-0.577-0.979-1.25-1.271-2.029c-0.275-0.775-0.426-1.631-0.426-2.569
				c0-0.951,0.154-1.818,0.439-2.607c0.289-0.79,0.707-1.463,1.254-2.017c0.543-0.561,1.199-0.989,1.969-1.295
				c0.773-0.301,1.627-0.453,2.559-0.453c0.951,0,1.811,0.152,2.582,0.462c0.771,0.303,1.432,0.741,1.986,1.304
				c0.551,0.567,0.967,1.241,1.256,2.019C501.957,766.261,502.104,767.119,502.104,768.063z M498.959,768.063
				c0-1.279-0.285-2.27-0.844-2.984c-0.561-0.716-1.314-1.07-2.266-1.07c-0.613,0-1.15,0.162-1.621,0.478
				c-0.465,0.316-0.822,0.783-1.074,1.404c-0.252,0.623-0.383,1.344-0.383,2.173c0,0.818,0.123,1.531,0.373,2.139
				c0.252,0.619,0.607,1.086,1.072,1.409c0.465,0.321,1.008,0.49,1.633,0.49c0.951,0,1.705-0.361,2.266-1.077
				C498.674,770.309,498.959,769.32,498.959,768.063z"/>
			<path style="fill:#705165;" d="M514.047,768.295v4.16c0,0.661-0.146,1.147-0.447,1.482c-0.299,0.33-0.693,0.49-1.184,0.49
				c-0.471,0-0.861-0.16-1.146-0.49c-0.297-0.335-0.449-0.821-0.449-1.482v-4.988c0-0.789-0.025-1.401-0.074-1.84
				c-0.059-0.429-0.205-0.794-0.439-1.07c-0.232-0.278-0.611-0.421-1.123-0.421c-1.027,0-1.699,0.351-2.025,1.063
				c-0.324,0.696-0.488,1.707-0.488,3.026v4.23c0,0.651-0.15,1.142-0.441,1.477c-0.297,0.33-0.684,0.496-1.166,0.496
				c-0.475,0-0.861-0.166-1.162-0.496c-0.303-0.335-0.459-0.825-0.459-1.477v-8.962c0-0.586,0.139-1.037,0.41-1.34
				c0.273-0.31,0.631-0.462,1.072-0.462c0.432,0,0.787,0.149,1.076,0.433c0.285,0.288,0.428,0.679,0.428,1.188v0.294
				c0.549-0.645,1.125-1.125,1.748-1.429c0.619-0.309,1.303-0.462,2.063-0.462c0.789,0,1.467,0.157,2.031,0.47
				c0.566,0.315,1.031,0.789,1.4,1.421c0.525-0.638,1.094-1.115,1.697-1.429c0.609-0.309,1.273-0.462,2.008-0.462
				c0.857,0,1.598,0.173,2.217,0.504c0.619,0.339,1.078,0.823,1.381,1.445c0.271,0.57,0.404,1.459,0.404,2.679v6.111
				c0,0.661-0.15,1.147-0.443,1.482c-0.299,0.33-0.691,0.49-1.184,0.49c-0.473,0-0.863-0.166-1.166-0.496
				c-0.303-0.335-0.449-0.825-0.449-1.477v-5.269c0-0.673-0.031-1.209-0.09-1.614c-0.053-0.405-0.211-0.746-0.463-1.022
				c-0.256-0.271-0.637-0.414-1.148-0.414c-0.414,0-0.803,0.125-1.176,0.37c-0.369,0.242-0.658,0.573-0.869,0.982
				C514.164,766.013,514.047,766.952,514.047,768.295z"/>
			<g>
				<path style="fill-rule:evenodd;clip-rule:evenodd;fill:#705165;" d="M375.906,775.524c0,0-1.711-0.272-3.377-2.097
					c-1.68-1.839-1.963-3.789-1.963-3.789s2.131,0.504,3.662,0.67c2.695,0.307,5.125,0.137,6.27,0.014
					c2.48-0.273,3.801-0.731,4.334-0.864c3.168-0.757,6.213-2.809,6.213-2.809s0.385,2.38-1.406,5.02
					c-0.697,1.03-2.086,2.215-3.688,3.03C380.471,777.034,375.906,775.524,375.906,775.524z"/>
				<path style="fill-rule:evenodd;clip-rule:evenodd;fill:#705165;" d="M388.857,762.002c-0.594-0.714-2.553-4.078-6.523-4.561
					c-1.018-0.121-6.385,0.085-9.604,3.068c-0.322,0.299-1.957,1.736-2.5,4.408c-0.422,2.065,0.271,4.395,0.271,4.395
					s3.57,0.742,6.262,0.675c4.27-0.106,6.416-0.482,8.648-1.158c3.287-0.999,5.611-2.663,5.611-2.663
					S389.447,762.721,388.857,762.002z M376.539,767.119c-1.805,0.12-3.357-1.242-3.471-3.039c-0.113-1.79,1.26-3.345,3.064-3.455
					c1.809-0.125,3.363,1.244,3.471,3.035C379.721,765.456,378.344,767.006,376.539,767.119z M385.76,764.803
					c-1.137,0.067-2.117-0.786-2.188-1.919c-0.068-1.124,0.797-2.1,1.932-2.174c1.133-0.074,2.117,0.79,2.184,1.913
					C387.762,763.755,386.893,764.731,385.76,764.803z"/>
				<path style="fill-rule:evenodd;clip-rule:evenodd;fill:#705165;" d="M387.311,759.68l1.037-1.249c0,0,1.432,0.705,2.352,2.035
					c0.918,1.32,1.514,2.531,1.514,2.531l-1.711,1.041c0,0-0.529-1.276-1.326-2.302C388.385,760.717,387.311,759.68,387.311,759.68z
					"/>
				<path style="fill-rule:evenodd;clip-rule:evenodd;fill:#705165;" d="M390.566,760.542c0.268-0.161,0.721-0.183,0.693-0.567
					c-0.018-0.374-0.273-1.122,0.469-1.375c0.754-0.256,0.332,0.221,0.072,0.551c-0.258,0.328-0.174,0.529-0.141,1.016
					c0.027,0.476-0.313,0.637-0.82,0.872C390.334,761.282,390.301,760.701,390.566,760.542z"/>
				<path style="fill-rule:evenodd;clip-rule:evenodd;fill:#705165;" d="M371.541,761.306c0,0-1.199,1.396-1.506,2.655
					c-0.303,1.267-0.24,2.787-0.24,2.787l-1.781-0.612c0,0-0.1-1.747,0.707-3.161c0.904-1.566,2.053-2.273,2.053-2.273
					L371.541,761.306z"/>
				<path style="fill-rule:evenodd;clip-rule:evenodd;fill:#705165;" d="M368.926,762.895c-0.289-0.19-0.316-0.641-0.545-0.936
					c-0.227-0.299-0.285-0.118-0.805-0.118c-0.523-0.005-0.537-0.247-0.688-0.372c-0.148-0.13-0.217,0.391-0.217,0.391
					s0.098,0.445,0.656,0.477c0.555,0.037,0.541-0.238,0.781,0.263c0.24,0.506,0.717,0.89,0.717,0.89
					S369.219,763.082,368.926,762.895z"/>
				<path style="fill-rule:evenodd;clip-rule:evenodd;fill:#705165;" d="M378.361,756.271c2.916-0.73,4.742,0.112,4.742,0.112
					l-0.154,0.838c0,0-2.135-0.142-3.824,0.11c-1.688,0.241-2.457,0.773-2.457,0.773l-0.365-0.838
					C376.303,757.268,377.102,756.588,378.361,756.271z"/>
				<path style="fill-rule:evenodd;clip-rule:evenodd;fill:#705165;" d="M379.236,755.074l0.408-0.153l0.543,1.457l-0.408,0.151
					L379.236,755.074z"/>
				<path style="fill-rule:evenodd;clip-rule:evenodd;fill:#705165;" d="M392.082,757.774c0.414-0.023,0.764,0.289,0.789,0.702
					c0.027,0.409-0.285,0.761-0.697,0.785c-0.412,0.031-0.762-0.286-0.789-0.694C391.359,758.158,391.67,757.811,392.082,757.774z"
					/>
				<path style="fill-rule:evenodd;clip-rule:evenodd;fill:#705165;" d="M366.469,760.594c0.414-0.022,0.768,0.286,0.793,0.694
					c0.023,0.41-0.287,0.759-0.699,0.787c-0.412,0.029-0.764-0.283-0.795-0.692C365.746,760.975,366.061,760.625,366.469,760.594z"
					/>
				<path style="fill-rule:evenodd;clip-rule:evenodd;fill:#705165;" d="M379.592,753.217c0.656-0.041,1.221,0.45,1.26,1.105
					c0.041,0.649-0.457,1.211-1.113,1.254c-0.656,0.046-1.217-0.452-1.262-1.107C378.436,753.819,378.936,753.255,379.592,753.217z"
					/>
			</g>
		</g>
		<g>
			<path style="fill:#705165;" d="M286.424,772.704c0,0.735-0.463,1.218-1.102,1.218c-0.604,0-0.957-0.333-1.09-0.916
				c-0.414,0.672-1.26,1.004-2.006,1.004c-2.207,0-3.604-2.047-3.604-4.116c0-2.133,1.17-4.335,3.525-4.335
				c0.76,0,1.506,0.262,2.084,0.765v-2.984c0-0.724,0.453-1.21,1.09-1.21c0.639,0,1.102,0.486,1.102,1.21V772.704z M282.514,767.567
				c-1.141,0-1.701,1.197-1.701,2.235c0,1.019,0.561,2.204,1.701,2.204c1.199,0,1.719-1.218,1.719-2.281
				C284.232,768.659,283.684,767.567,282.514,767.567z"/>
			<path style="fill:#705165;" d="M289.426,770.513c0.156,1.08,1.051,1.584,2.072,1.584c1.123,0,1.896-0.883,2.477-0.883
				c0.471,0,0.893,0.47,0.893,0.946c0,0.942-1.943,1.85-3.568,1.85c-2.463,0-4.105-1.795-4.105-4.207
				c0-2.219,1.613-4.244,3.922-4.244c2.369,0,3.939,2.164,3.939,3.984c0,0.654-0.291,0.97-0.961,0.97H289.426z M292.865,769.056
				c-0.123-0.961-0.73-1.667-1.75-1.667c-0.973,0-1.629,0.738-1.732,1.667H292.865z"/>
			<path style="fill:#705165;" d="M300.434,768.115c-0.412,0-1.248-0.639-1.963-0.639c-0.393,0-0.744,0.181-0.744,0.606
				c0,1.017,3.801,0.868,3.801,3.364c0,1.455-1.23,2.563-3.117,2.563c-1.23,0-3.053-0.697-3.053-1.684
				c0-0.336,0.334-0.973,0.941-0.973c0.85,0,1.23,0.743,2.264,0.743c0.668,0,0.867-0.212,0.867-0.624
				c0-1.004-3.803-0.85-3.803-3.357c0-1.519,1.234-2.557,2.963-2.557c1.082,0,2.738,0.507,2.738,1.586
				C301.328,767.643,300.947,768.115,300.434,768.115z"/>
			<path style="fill:#705165;" d="M304.596,763.568c0,0.689-0.545,1.262-1.23,1.262c-0.654,0-1.23-0.592-1.23-1.262
				c0-0.623,0.576-1.195,1.23-1.195C304.018,762.373,304.596,762.929,304.596,763.568z M302.271,766.87
				c0-0.731,0.455-1.218,1.094-1.218c0.637,0,1.094,0.486,1.094,1.218v5.834c0,0.735-0.457,1.218-1.094,1.218
				c-0.639,0-1.094-0.482-1.094-1.218V766.87z"/>
			<path style="fill:#705165;" d="M313.152,773.194c0,2.625-1.717,3.954-4.211,3.954c-0.895,0-3.449-0.444-3.449-1.647
				c0-0.409,0.455-0.957,0.883-0.957c0.699,0,1.475,0.681,2.734,0.681c1.064,0,1.855-0.616,1.855-1.73v-0.514h-0.031
				c-0.453,0.667-1.199,1.029-2.201,1.029c-2.295,0-3.379-2.02-3.379-4.19c0-2.207,1.4-4.261,3.605-4.261
				c0.744,0,1.594,0.336,2.006,1.003c0.137-0.576,0.484-0.909,1.094-0.909c0.639,0,1.094,0.486,1.094,1.218V773.194z
				 M309.244,767.567c-1.137,0-1.697,1.186-1.697,2.207c0,1.166,0.561,2.232,1.697,2.232c1.172,0,1.721-1.092,1.721-2.166
				C310.965,768.785,310.445,767.567,309.244,767.567z"/>
			<path style="fill:#705165;" d="M314.396,766.87c0-0.731,0.455-1.218,1.096-1.218c0.564,0,0.928,0.303,1.002,0.809
				c0.432-0.597,1.082-0.902,2.113-0.902c1.719,0,2.994,1.096,2.994,2.949v4.196c0,0.735-0.451,1.218-1.092,1.218
				c-0.637,0-1.096-0.482-1.096-1.218v-3.816c0-1.015-0.639-1.499-1.43-1.499c-0.893,0-1.396,0.652-1.396,1.499v3.816
				c0,0.735-0.459,1.218-1.096,1.218c-0.641,0-1.096-0.482-1.096-1.218V766.87z"/>
			<path style="fill:#705165;" d="M324.611,770.513c0.152,1.08,1.049,1.584,2.066,1.584c1.125,0,1.9-0.883,2.479-0.883
				c0.469,0,0.898,0.47,0.898,0.946c0,0.942-1.949,1.85-3.574,1.85c-2.465,0-4.104-1.795-4.104-4.207
				c0-2.219,1.611-4.244,3.924-4.244c2.369,0,3.934,2.164,3.934,3.984c0,0.654-0.289,0.97-0.957,0.97H324.611z M328.047,769.056
				c-0.123-0.961-0.729-1.667-1.746-1.667c-0.977,0-1.631,0.738-1.734,1.667H328.047z"/>
			<path style="fill:#705165;" d="M338.486,772.704c0,0.735-0.453,1.218-1.096,1.218c-0.605,0-0.955-0.333-1.09-0.916
				c-0.414,0.672-1.262,1.004-2.01,1.004c-2.201,0-3.598-2.047-3.598-4.116c0-2.133,1.168-4.335,3.525-4.335
				c0.758,0,1.502,0.262,2.082,0.765v-2.984c0-0.724,0.455-1.21,1.09-1.21c0.643,0,1.096,0.486,1.096,1.21V772.704z
				 M334.584,767.567c-1.141,0-1.703,1.197-1.703,2.235c0,1.019,0.563,2.204,1.703,2.204c1.197,0,1.717-1.218,1.717-2.281
				C336.301,768.659,335.754,767.567,334.584,767.567z"/>
			<path style="fill:#705165;" d="M343.807,763.339c0-0.724,0.459-1.21,1.098-1.21c0.635,0,1.09,0.486,1.09,1.21v2.984
				c0.582-0.503,1.324-0.765,2.082-0.765c2.359,0,3.527,2.202,3.527,4.335c0,2.069-1.396,4.116-3.604,4.116
				c-0.742,0-1.594-0.332-2.006-1.004c-0.137,0.583-0.482,0.916-1.09,0.916c-0.639,0-1.098-0.482-1.098-1.218V763.339z
				 M347.713,772.007c1.139,0,1.703-1.186,1.703-2.204c0-1.038-0.564-2.235-1.703-2.235c-1.17,0-1.719,1.092-1.719,2.158
				C345.994,770.789,346.514,772.007,347.713,772.007z"/>
			<path style="fill:#705165;" d="M351.984,767.155c-0.063-0.164-0.107-0.337-0.107-0.559c0-0.55,0.578-0.944,1.033-0.944
				c0.531,0,0.914,0.293,1.096,0.775l1.504,4.119l1.609-4.119c0.182-0.482,0.563-0.775,1.096-0.775c0.459,0,1.033,0.395,1.033,0.944
				c0,0.222-0.031,0.395-0.104,0.559l-3.664,9.123c-0.184,0.453-0.52,0.87-1.035,0.87c-0.74,0-1.141-0.479-1.141-0.945
				c0-0.217,0.063-0.444,0.137-0.641l0.961-2.368L351.984,767.155z"/>
		</g>
	</g>
	<g>
		<g>
			<g>
				<path style="fill:#BD736A;" d="M296.612,564.178c0,0,4.557,18.604,0,22.783c-4.557,4.178-32.908-3.987-45.218-6.266
					c-12.31-2.278-17.071,7.652-0.988,11.584c6.411,1.567-1.641,6.642-8.475,10.06s-3.416,11.392,2.849,13.67
					c6.266,2.278,13.037-4.885,18.353-4.885c5.316,0-4.492,6.973-4.872,14.568c-0.38,7.595,12.386,8.354,21.952-3.037
					c9.565-11.392,16.779-20.505,25.134-22.783c8.354-2.278,9.161-6.836,7.428-21.645c-1.733-14.809,1.305-18.607,1.305-18.607
					L296.612,564.178z"/>
				<path style="fill:#BD736A;" d="M396.683,602.339c-6.835-3.418-14.887-8.492-8.476-10.06
					c16.082-3.932,11.321-13.862-0.988-11.584s-40.661,10.443-45.218,6.266c-4.558-4.179,0-22.783,0-22.783l-17.468-4.558
					c0,0,3.038,3.799,1.305,18.607c-1.732,14.809-0.925,19.366,7.429,21.645c8.354,2.278,15.568,11.392,25.134,22.783
					s22.332,10.632,21.952,3.037c-0.381-7.596-10.189-14.568-4.873-14.568c5.315,0,12.088,7.163,18.353,4.885
					C400.098,613.73,403.516,605.757,396.683,602.339z"/>
			</g>
			<path style="fill:#FFFFFF;" d="M434.806,483.775c-1.691-45.697-24.399-55.852-38.786-102.396
				C381.691,335.022,391,279.437,320,278.994v-0.01c0,0-0.357,0.005-0.5,0.005c-0.143,0-0.5-0.005-0.5-0.005v0.01
				c-71,0.443-62.041,56.028-76.369,102.386c-14.386,46.544-37.131,56.699-38.824,102.396C201.624,542.729,251,575.739,319,576.01
				v0.007c0,0,0.358-0.004,0.5-0.004s0.5,0.004,0.5,0.004v-0.007C388,575.739,436.989,542.729,434.806,483.775z"/>
			<path style="fill:#705165;" d="M493,448.5c-16.995-41.678-57.889-59.121-72.872-64.259c-3.882-8.171-7.641-17.363-11.003-28.241
				C392.193,301.22,403,235.536,319,235.012V235c0,0-0.331,0.006-0.5,0.006c-0.169,0,0.5-0.006-0.5-0.006v0.012
				c-83,0.523-72.818,66.208-89.75,120.988c-3.689,11.936-7.855,21.845-12.139,30.6c-17.187,6.515-53.384,24.331-69.111,62.9
				c-21,51.5,0,48.5,16,33c5.738-5.56,12.96-12.116,20.184-18.576c-0.523,4.085-0.886,8.422-1.059,13.076
				C179.545,546.664,238,585.673,318,585.992V586c1,0,0.333-0.004,0.5-0.004S319,586,319,586v-0.008
				c81-0.319,138.83-39.328,136.25-108.992c-0.228-6.139-0.782-11.73-1.607-16.908c8.248,7.347,16.777,15.033,23.357,21.408
				C493,497,514,500,493,448.5z M320,576.01v0.007c0,0-0.358-0.004-0.5-0.004s-0.5,0.004-0.5,0.004v-0.007
				c-68-0.271-117.376-33.281-115.193-92.234c1.692-45.697,24.438-55.852,38.824-102.396c11.41-36.915,8.054-79.681,42.065-95.795
				c12.279-2.674,37.351,10.314,24.187,52.416h9.617h1h9.617c-14.384-46,18.828-54.816,27.23-51.283
				c0.128,0.054,0.26,0.099,0.396,0.137c31.266,16.994,28.153,58.537,39.276,94.526c14.387,46.544,37.095,56.699,38.786,102.396
				C436.989,542.729,388,575.739,320,576.01z"/>
			<g>
				<g>
					<circle style="fill:#FFEAE9;" cx="278.75" cy="348.75" r="14.75"/>
					<circle style="fill:#FFEAE9;" cx="360.75" cy="348.75" r="14.75"/>
				</g>
				<g>
					
						<ellipse transform="matrix(0.9747 0.2235 -0.2235 0.9747 79.5295 -57.4986)" style="fill:#705165;" cx="293.833" cy="322.667" rx="4.834" ry="8.333"/>
					
						<ellipse transform="matrix(0.991 -0.1336 0.1336 0.991 -40.05 48.4239)" style="fill:#705165;" cx="340.833" cy="322.667" rx="4.834" ry="8.333"/>
				</g>
				<g>
					<path style="fill:#BF716E;" d="M319.579,382.577l0.002,0.09c-0.295,0-0.595-0.019-0.893-0.032
						c-0.298,0.014-0.598,0.032-0.893,0.032l0.002-0.09c-13.535-1.201-30.335-15.542-32.546-26.298
						c-0.152,0.564-0.25,1.136-0.25,1.722c0,10.883,18.28,27.289,32.797,28.577l-0.002,0.09c0.295,0,0.595-0.019,0.893-0.032
						c0.298,0.014,0.598,0.032,0.893,0.032l-0.002-0.09c14.517-1.288,32.797-17.694,32.797-28.577c0-0.585-0.098-1.158-0.25-1.722
						C349.915,367.034,333.114,381.376,319.579,382.577z"/>
					<path style="fill:#FF9693;" d="M317.797,382.577l-0.002,0.09c0.295,0,0.595-0.019,0.893-0.032
						c0.298,0.014,0.598,0.032,0.893,0.032l-0.002-0.09c13.535-1.201,30.335-15.542,32.546-26.298c0.16-0.78,0.25-1.542,0.25-2.278
						c0-11.333-30-18.667-33.688-18.667S285,342.667,285,354c0,0.736,0.09,1.499,0.25,2.278
						C287.461,367.034,304.262,381.376,317.797,382.577z"/>
				</g>
			</g>
		</g>
		<g>
			<path style="fill:#FFFFFF;" d="M353,224.667C336,261.833,231.333,276,231.333,276s-2.585,13.865,9.374,23.933
				c0,0,108.047-23.599,126.836-51.933C367.544,248,368.667,234.667,353,224.667z"/>
			<path style="fill:#FF787E;" d="M353,224.667c0,0-119.14-75.229-167.237,24.872c9.5,0.369,17.241,7.518,18.527,16.755
				c10.462-4.45,25.042-7.356,27.043,9.707C231.333,276,336,261.833,353,224.667z"/>
			<path style="fill:#FFFFFF;" d="M185.763,249.539c-0.255-0.01-0.505-0.039-0.763-0.039c-10.77,0-19.5,8.73-19.5,19.5
				s8.73,19.5,19.5,19.5s19.5-8.73,19.5-19.5c0-0.921-0.086-1.819-0.209-2.707C203.004,257.057,195.264,249.907,185.763,249.539z"/>
		</g>
	</g>
	<g>
		<path style="fill:#BD736A;" d="M730.578,359.929l2.243-2.752c1.57-1.927,1.281-4.761-0.646-6.331
			c-1.927-1.571-4.762-1.28-6.331,0.646L597.629,508.824c-1.57,1.927-1.281,4.761,0.646,6.331c0.835,0.681,1.841,1.012,2.84,1.012
			c1.307,0,2.602-0.565,3.491-1.657l124.07-152.247l7.658,174.614c0.023,0.537,0.466,1.123,0.998,1.123c0.015,0,0.03,0,0.045,0
			c0.552,0,0.979-0.647,0.955-1.199L730.578,359.929z"/>
		<g>
			<path style="fill:#705165;" d="M757.009,568.993c-0.027,0.255-0.064,0.513-0.102,0.771c-0.003,0.021-0.005,0.043-0.009,0.064
				c-0.075,0.51-0.17,1.023-0.283,1.54c-0.013,0.059-0.027,0.118-0.041,0.177c-0.11,0.489-0.237,0.98-0.385,1.477
				c-0.009,0.03-0.017,0.061-0.025,0.092c-0.154,0.514-0.332,1.03-0.526,1.551c-0.031,0.081-0.063,0.162-0.095,0.244
				c-0.188,0.486-0.394,0.976-0.619,1.467c-0.017,0.038-0.032,0.074-0.05,0.112c-0.24,0.518-0.506,1.038-0.79,1.561
				c-0.053,0.098-0.109,0.196-0.164,0.295c-0.109,0.196-0.216,0.393-0.331,0.589c1.735,4.801,0.616,12.959,4.272,5.803
				C761.091,578.412,758.753,572.211,757.009,568.993z"/>
			<path style="fill:#705165;" d="M723.646,583.322c-0.396-0.493-0.769-0.985-1.124-1.476c-0.085-0.117-0.17-0.233-0.252-0.351
				c-0.369-0.521-0.72-1.041-1.044-1.56c-0.028-0.046-0.054-0.091-0.082-0.137c-0.301-0.485-0.579-0.969-0.842-1.45
				c-0.057-0.104-0.113-0.207-0.168-0.31c-0.275-0.52-0.533-1.036-0.767-1.55c-0.02-0.045-0.037-0.089-0.057-0.133
				c-0.217-0.484-0.413-0.966-0.595-1.444c-0.032-0.086-0.066-0.172-0.098-0.258c-0.033-0.091-0.071-0.183-0.104-0.274
				c-0.615,3.7-0.686,9.841,3.984,14.619c4.663,4.771,3.048,0.439,2.497-4.087c-0.438-0.491-0.86-0.981-1.256-1.47
				C723.708,583.402,723.679,583.362,723.646,583.322z"/>
			<path style="fill:#FFFFFF;" d="M727.831,537.744c-0.109-0.188-0.211-0.375-0.3-0.564
				C727.62,537.369,727.721,537.557,727.831,537.744z"/>
			<path style="fill:#FFFFFF;" d="M728.14,538.229c-0.099-0.146-0.197-0.292-0.284-0.439
				C727.943,537.936,728.04,538.082,728.14,538.229z"/>
			<path style="fill:#FFFFFF;" d="M717.203,565.081c0.032-0.506,0.08-1.007,0.144-1.502
				C717.283,564.074,717.235,564.575,717.203,565.081z"/>
			<path style="fill:#FFFFFF;" d="M728.436,538.643c-0.056-0.074-0.115-0.148-0.169-0.224
				C728.32,538.494,728.379,538.568,728.436,538.643z"/>
			<path style="fill:#FFFFFF;" d="M752.973,579.933c-0.335,0.522-0.697,1.047-1.078,1.572
				C752.275,580.979,752.638,580.455,752.973,579.933z"/>
			<path style="fill:#FFFFFF;" d="M717.214,568.165c-0.036-0.512-0.056-1.019-0.058-1.521
				C717.158,567.146,717.178,567.653,717.214,568.165z"/>
			<path style="fill:#FFFFFF;" d="M727.228,536.382c-0.036-0.116-0.071-0.231-0.099-0.349
				C727.155,536.15,727.192,536.266,727.228,536.382z"/>
			<path style="fill:#FFFFFF;" d="M727.521,537.156c-0.087-0.187-0.164-0.373-0.23-0.562
				C727.356,536.783,727.435,536.97,727.521,537.156z"/>
			<path style="fill:#FFFFFF;" d="M757.14,566.645c-0.002,0.504-0.022,1.014-0.06,1.527
				C757.117,567.658,757.137,567.148,757.14,566.645z"/>
			<path style="fill:#FFFFFF;" d="M737.147,574.5c8.335,0,15.648-4.358,19.798-10.917c0.064,0.496,0.114,0.998,0.146,1.506
				c-0.894-13.843-14.146-23.757-14.146-23.757c0.047-0.042,0.091-0.083,0.137-0.125l-12.151,0.05
				c0.027,0.025,0.054,0.05,0.082,0.075c0,0-12.003,9.198-13.667,22.245C721.496,570.139,728.811,574.5,737.147,574.5z
				 M733.314,557.564l3.896-3.896l-2.91-2.384c-0.642-0.524-0.735-1.47-0.21-2.11c0.523-0.642,1.471-0.736,2.11-0.21l3.141,2.573
				l2.099-2.099c0.586-0.586,1.535-0.586,2.121,0s0.586,1.535,0,2.121l-1.888,1.888l4.902,4.017c0.642,0.524,0.735,1.47,0.21,2.11
				c-0.296,0.362-0.727,0.55-1.161,0.55c-0.334,0-0.671-0.111-0.949-0.34l-5.134-4.205l-4.105,4.105
				c-0.293,0.293-0.677,0.439-1.061,0.439s-0.768-0.146-1.061-0.439C732.729,559.1,732.729,558.15,733.314,557.564z"/>
			<path style="fill:#FFFFFF;" d="M757.093,565.104c0.032,0.5,0.048,1.005,0.046,1.515
				C757.141,566.108,757.125,565.604,757.093,565.104z"/>
			<path style="fill:#FFFFFF;" d="M717.381,569.751c-0.069-0.497-0.122-0.99-0.158-1.479
				C717.259,568.761,717.312,569.254,717.381,569.751z"/>
			<path style="fill:#FFFFFF;" d="M717.157,566.604c-0.001-0.506,0.014-1.007,0.045-1.502
				C717.171,565.598,717.156,566.099,717.157,566.604z"/>
			<path style="fill:#FFFFFF;" d="M748.667,585.386c-0.482,0.513-0.982,1.026-1.513,1.542
				C747.685,586.412,748.185,585.898,748.667,585.386z"/>
			<path style="fill:#FFFFFF;" d="M747.09,586.992c-0.548,0.529-1.131,1.061-1.732,1.592
				C745.959,588.053,746.542,587.521,747.09,586.992z"/>
			<path style="fill:#FFFFFF;" d="M751.647,581.84c-0.371,0.5-0.759,1.001-1.174,1.504
				C750.889,582.841,751.276,582.34,751.647,581.84z"/>
			<path style="fill:#FFFFFF;" d="M750.397,583.438c-0.437,0.526-0.905,1.055-1.392,1.584
				C749.492,584.493,749.961,583.965,750.397,583.438z"/>
			<path style="fill:#FFFFFF;" d="M744.919,588.968c-0.617,0.535-1.253,1.07-1.927,1.607
				C743.666,590.038,744.302,589.503,744.919,588.968z"/>
			<path style="fill:#FFFFFF;" d="M718.078,573.004c-0.141-0.488-0.263-0.974-0.369-1.456
				C717.815,572.03,717.938,572.516,718.078,573.004z"/>
			<path style="fill:#FFFFFF;" d="M726.895,586.918c-0.513-0.511-0.996-1.02-1.463-1.527
				C725.898,585.898,726.381,586.407,726.895,586.918z"/>
			<path style="fill:#FFFFFF;" d="M717.666,571.36c-0.109-0.515-0.202-1.026-0.275-1.533
				C717.464,570.335,717.557,570.846,717.666,571.36z"/>
			<path style="fill:#FFFFFF;" d="M730.967,590.575c-0.657-0.536-1.276-1.071-1.879-1.605
				C729.69,589.504,730.31,590.039,730.967,590.575z"/>
			<path style="fill:#FFFFFF;" d="M728.654,588.581c-0.585-0.53-1.152-1.06-1.687-1.588
				C727.502,587.521,728.069,588.051,728.654,588.581z"/>
			<path style="fill:#FFFFFF;" d="M755.543,574.908c-0.188,0.486-0.394,0.976-0.619,1.467
				C755.149,575.884,755.354,575.395,755.543,574.908z"/>
			<path style="fill:#FFFFFF;" d="M756.898,569.828c-0.074,0.51-0.17,1.023-0.283,1.54
				C756.729,570.852,756.823,570.338,756.898,569.828z"/>
			<path style="fill:#FFFFFF;" d="M756.574,571.545c-0.11,0.489-0.237,0.98-0.385,1.477
				C756.337,572.525,756.464,572.034,756.574,571.545z"/>
			<path style="fill:#FFFFFF;" d="M756.164,573.113c-0.154,0.514-0.332,1.03-0.526,1.551
				C755.832,574.144,756.01,573.627,756.164,573.113z"/>
			<path style="fill:#FFFFFF;" d="M756.907,569.764c0.037-0.258,0.074-0.516,0.102-0.771c0.027-0.242,0.044-0.481,0.063-0.721
				C757.034,568.766,756.979,569.263,756.907,569.764z"/>
			<path style="fill:#FFFFFF;" d="M754.874,576.487c-0.24,0.518-0.506,1.038-0.79,1.561
				C754.368,577.525,754.634,577.005,754.874,576.487z"/>
			<path style="fill:#FFFFFF;" d="M753.04,579.822c0.189-0.297,0.374-0.594,0.549-0.891c0.115-0.196,0.222-0.393,0.331-0.589
				C753.646,578.834,753.354,579.327,753.04,579.822z"/>
			<path style="fill:#FFFFFF;" d="M721.227,579.937c0.324,0.519,0.675,1.038,1.044,1.56
				C721.901,580.975,721.551,580.455,721.227,579.937z"/>
			<path style="fill:#FFFFFF;" d="M723.741,583.443c0.396,0.488,0.817,0.979,1.256,1.47c0.03,0.034,0.063,0.068,0.093,0.103
				C724.619,584.49,724.164,583.966,723.741,583.443z"/>
			<path style="fill:#FFFFFF;" d="M720.303,578.35c0.263,0.481,0.541,0.965,0.842,1.45
				C720.844,579.314,720.565,578.831,720.303,578.35z"/>
			<path style="fill:#FFFFFF;" d="M722.522,581.847c0.355,0.49,0.728,0.982,1.124,1.476
				C723.25,582.829,722.878,582.337,722.522,581.847z"/>
			<path style="fill:#FFFFFF;" d="M718.109,573.115c0.123,0.42,0.256,0.842,0.406,1.266c0.032,0.092,0.07,0.184,0.104,0.274
				C718.431,574.139,718.259,573.625,718.109,573.115z"/>
			<path style="fill:#FFFFFF;" d="M719.368,576.49c0.233,0.514,0.491,1.03,0.767,1.55
				C719.859,577.521,719.602,577.004,719.368,576.49z"/>
			<path style="fill:#FFFFFF;" d="M718.717,574.913c0.182,0.479,0.378,0.96,0.595,1.444
				C719.095,575.873,718.898,575.392,718.717,574.913z"/>
			<path style="fill:#FF9693;" d="M743.086,541c3.409-3,5.446-5.998,2.417-9.787c-3.03-3.789-8.523,2.408-8.523,2.408
				s-5.493-6.16-8.522-2.371c-1.354,1.693-1.681,3.279-1.328,4.771c0.027,0.117,0.063,0.238,0.099,0.354
				c0.021,0.071,0.039,0.146,0.063,0.217c0.066,0.188,0.144,0.376,0.23,0.563c0.003,0.008,0.006,0.017,0.01,0.024
				c0.089,0.189,0.19,0.378,0.3,0.565c0.009,0.015,0.016,0.029,0.024,0.045c0.087,0.147,0.186,0.293,0.284,0.439
				c0.043,0.063,0.083,0.127,0.127,0.19c0.054,0.075,0.113,0.021,0.169,0.095c0.669,0.895,1.524,1.486,2.493,2.486h0.003h12.151
				H743.086z"/>
			<path style="fill:#FF787E;" d="M753.92,578.343c0.055-0.099,0.111-0.197,0.164-0.295c0.284-0.522,0.55-1.043,0.79-1.561
				c0.018-0.038,0.033-0.074,0.05-0.112c0.226-0.491,0.431-0.98,0.619-1.467c0.031-0.082,0.063-0.163,0.095-0.244
				c0.194-0.521,0.372-1.037,0.526-1.551c0.009-0.031,0.017-0.062,0.025-0.092c0.147-0.496,0.274-0.987,0.385-1.477
				c0.014-0.059,0.028-0.118,0.041-0.177c0.113-0.517,0.209-1.03,0.283-1.54c0.004-0.021,0.006-0.043,0.009-0.064
				c0.072-0.501,0.127-0.998,0.164-1.491c0.003-0.033-0.063-0.067-0.062-0.101c0.037-0.514-0.01-1.023-0.01-1.527
				c0-0.009,0-0.018,0-0.026c0-0.51,0-1.015,0-1.515c0-0.005,0-0.01,0-0.015c0-0.508-0.036-1.01-0.101-1.506
				c-4.149,6.559-11.613,10.917-19.948,10.917c-8.337,0-15.951-4.361-19.951-10.923l0,0c0,0.001,0,0.001,0,0.002
				c0,0.495,0,0.996,0,1.502c0,0.007,0,0.014,0,0.021c0,0.495,0,0.996,0,1.502c0,0.013,0,0.025,0,0.039
				c0,0.503,0.1,1.01,0.136,1.521c0.003,0.035,0.045,0.071,0.048,0.106c0.036,0.489,0.108,0.982,0.178,1.479
				c0.004,0.025,0.017,0.051,0.02,0.076c0.073,0.507,0.171,1.019,0.28,1.533c0.014,0.063,0.03,0.125,0.046,0.188
				c0.105,0.482,0.229,0.968,0.37,1.456c0.011,0.037,0.021,0.074,0.031,0.111c0.149,0.51,0.322,1.023,0.511,1.54
				c0.031,0.086,0.065,0.172,0.098,0.258c0.182,0.479,0.378,0.96,0.595,1.444c0.02,0.044,0.037,0.088,0.057,0.133
				c0.233,0.514,0.491,1.03,0.767,1.55c0.055,0.103,0.111,0.206,0.168,0.31c0.263,0.481,0.541,0.965,0.842,1.45
				c0.028,0.046,0.054,0.091,0.082,0.137c0.324,0.519,0.675,1.038,1.044,1.56c0.082,0.117,0.167,0.233,0.252,0.351
				c0.355,0.49,0.728,0.982,1.124,1.476c0.032,0.04,0.062,0.08,0.095,0.121c0.423,0.522,0.878,1.047,1.349,1.572
				c0.112,0.125,0.227,0.25,0.342,0.375c0.467,0.508,0.95,1.017,1.463,1.527c0.025,0.025,0.048,0.05,0.073,0.075
				c0.534,0.528,1.102,1.058,1.687,1.588c0.143,0.13,0.288,0.259,0.434,0.389c0.603,0.534,1.222,1.069,1.879,1.605
				c0,0-7.032,8.335-8.547,17.426c0,0,0.017-0.001,0.044-0.002c1.588-9.002,8.503-16.999,8.503-16.999l6.366,5.5l5.659-5.5
				c0,0,6.887,8.017,8.493,16.999c0.032,0.001,0.055,0.002,0.055,0.002c-1.515-9.091-8.548-17.426-8.548-17.426
				c0.674-0.537,1.31-1.072,1.927-1.607c0.147-0.128,0.294-0.256,0.438-0.384c0.602-0.531,1.185-1.063,1.732-1.592
				c0.022-0.021,0.042-0.043,0.064-0.064c0.53-0.516,1.03-1.029,1.513-1.542c0.113-0.121,0.228-0.242,0.339-0.363
				c0.486-0.529,0.955-1.058,1.392-1.584c0.026-0.031,0.05-0.063,0.076-0.095c0.415-0.503,0.803-1.004,1.174-1.504
				c0.083-0.111,0.166-0.224,0.247-0.335c0.381-0.525,0.743-1.05,1.078-1.572c0.023-0.037,0.044-0.073,0.067-0.11
				C753.354,579.327,753.646,578.834,753.92,578.343z"/>
			<path style="fill:#705165;" d="M737.333,596.5l-6.366-5.5c0,0-6.915,7.997-8.503,16.999c-0.013,0.072-0.032,0.142-0.044,0.214
				c0,0,11.15-0.485,14.56-4.272c3.409,3.787,14.561,4.326,14.561,4.326c-0.015-0.09-0.039-0.178-0.055-0.268
				c-1.606-8.982-8.493-16.999-8.493-16.999L737.333,596.5z"/>
			<path style="fill:#454C53;" d="M734.375,560.125c0.384,0,0.768-0.146,1.061-0.439l4.105-4.105l5.134,4.205
				c0.278,0.229,0.615,0.34,0.949,0.34c0.435,0,0.865-0.188,1.161-0.55c0.525-0.641,0.432-1.586-0.21-2.11l-4.902-4.017l1.888-1.888
				c0.586-0.586,0.586-1.535,0-2.121s-1.535-0.586-2.121,0l-2.099,2.099l-3.141-2.573c-0.64-0.526-1.587-0.432-2.11,0.21
				c-0.525,0.641-0.432,1.586,0.21,2.11l2.91,2.384l-3.896,3.896c-0.586,0.586-0.586,1.535,0,2.121
				C733.607,559.979,733.991,560.125,734.375,560.125z"/>
		</g>
	</g>
</g>
</svg>
