<?xml version="1.0" encoding="iso-8859-1"?>
<!-- Generator: Adobe Illustrator 16.0.0, SVG Export Plug-In . SVG Version: 6.00 Build 0)  -->
<!DOCTYPE svg PUBLIC "-//W3C//DTD SVG 1.1//EN" "http://www.w3.org/Graphics/SVG/1.1/DTD/svg11.dtd">
<svg version="1.1" id="Layer_1" xmlns="http://www.w3.org/2000/svg" xmlns:xlink="http://www.w3.org/1999/xlink" x="0px" y="0px"
	 width="1200px" height="800px" viewBox="0 0 1200 800" style="enable-background:new 0 0 1200 800;" xml:space="preserve">
<g id="Background">
</g>
<ellipse style="opacity:0.4;fill:#92D6CD;enable-background:new    ;" cx="431.607" cy="666" rx="65.011" ry="19"/>
<g>
	<path style="fill:#323945;" d="M573.189,590.34c6.771-4.001,2.154-18.771-11.563-14.797c-11.542,3.345-25.402,9.2-25.402,9.2
		c-9.663-22.262-14.479-33.481-22.224-34.614V589.5c0,3.69-0.268,7.194-0.736,10.551c7.681,16.57,19.995,15.009,31.321,13.49
		c12.266-1.644,23.842-8.198,28.913-10.585C583.96,598.033,577.189,588.801,573.189,590.34z"/>
	<path style="fill:#323945;" d="M349,541.39c-1.944,0.477-4.624,2.531-7.549,8.868c-5.829,12.626-14.569,44.68-17.969,56.336
		c-3.398,11.654,4.856,17.482,13.598,13.599c0,0,11.648,6.978,15.775-7.354C350.357,605.965,349,598.204,349,589.5V541.39z"/>
	<path style="fill:#FFA81F;" d="M382.753,662.868c0,0,3.721,12.225,16.782,7.858c0,0,7.75,13.448,18.213,3.192
		c3.836-3.759,7.149-11.496,7.049-19.082c-17.041-0.76-32.617-4.462-45.159-11.432C368.592,652.857,370.568,662.652,382.753,662.868
		z"/>
	<path style="fill:#FFA81F;" d="M445.464,673.92c10.463,10.256,18.213-3.192,18.213-3.192c13.062,4.365,16.783-7.858,16.783-7.858
		c12.215-0.216,14.17-10.06,3.03-19.532c-12.512,6.987-28.06,10.709-45.076,11.493C438.312,662.418,441.627,670.159,445.464,673.92z
		"/>
	<path style="fill:#434C5C;" d="M514,550.129V501.5c0-45.563-36.938-82.5-82.5-82.5c-45.563,0-82.5,36.938-82.5,82.5v39.89v48.11
		c0,8.704,1.356,16.465,3.854,23.338c4.939,13.589,14.375,23.674,26.784,30.568c12.542,6.97,28.119,10.672,45.159,11.432
		c2.212,0.1,4.442,0.162,6.702,0.162c2.331,0,4.633-0.066,6.915-0.171c17.017-0.784,32.563-4.506,45.076-11.493
		c15.954-8.908,26.952-23.124,29.772-43.285c0.47-3.355,0.736-6.859,0.736-10.551V550.129z M497,581.167
		c0,36.19-29.373,56.551-65.5,56.82c-36.128-0.271-65.5-20.63-65.5-56.82v-70.334c0-21.044,2.339-38.707,20.811-51.166
		c14.333-9.667,40.811-7.667,44.811,13.878c4-21.545,30.35-23.545,44.683-13.878C494.775,472.126,497,489.789,497,510.833V581.167z"
		/>
	<path style="fill:#FFFFFF;" d="M476.304,459.667C461.971,450,435.621,452,431.621,473.545c-4-21.545-30.478-23.545-44.811-13.878
		C368.339,472.126,366,489.789,366,510.833v70.334c0,36.19,29.372,56.551,65.5,56.82c36.127-0.271,65.5-20.63,65.5-56.82v-70.334
		C497,489.789,494.775,472.126,476.304,459.667z M450.144,522.313c-6.441,13.933-15.864,19.247-19.037,19.247
		s-12.595-5.314-19.037-19.247c-3.301-7.142,10.47-13.538,19.037-13.538S453.445,515.171,450.144,522.313z"/>
	<path style="fill:#FFA81F;" d="M431.107,508.773c-8.566,0-22.338,6.396-19.037,13.537c6.441,13.934,15.864,19.248,19.037,19.248
		s12.595-5.314,19.037-19.248C453.445,515.171,439.673,508.773,431.107,508.773z"/>
</g>
<g>
	<path style="fill:#FFFFFF;" d="M823.958,604.682c54.678-2.955,102.948,13.758,140.179,13.143c34.188-0.564,78.752-3.9,94.183-1.096
		c16.493,2.999,28.409,8.054,35.844,13.935c19.683-13.997,8.147-36.6-35.844-44.599c-15.431-2.806-59.995,0.53-94.183,1.096
		c-37.23,0.615-85.501-16.098-140.179-13.142c-54.592,2.949-77.869,29.755-59.801,52.293
		C773.65,615.036,794.119,606.294,823.958,604.682z"/>
	<path style="fill:#59A4AE;" d="M820.673,652.868c95.172,18.57,152.386-17.073,197.125-12.047
		c38.146,4.286,63.709-1.157,76.364-10.159c-7.435-5.881-19.351-10.936-35.844-13.935c-15.431-2.806-59.995,0.53-94.183,1.096
		c-37.23,0.615-85.501-16.099-140.179-13.143c-29.839,1.612-50.309,10.354-59.801,21.63
		C772.909,637.229,791.364,647.149,820.673,652.868z"/>
</g>
<g>
	
		<line style="fill:none;stroke:#434C5C;stroke-width:4;stroke-linecap:round;stroke-miterlimit:10;" x1="900.403" y1="380.266" x2="906.95" y2="511.053"/>
	
		<line style="fill:none;stroke:#FF8543;stroke-width:9;stroke-linecap:round;stroke-miterlimit:10;" x1="758.126" y1="600.662" x2="901.438" y2="378.662"/>
</g>
<g>
	<path style="fill:#92D6CD;" d="M1016.52,580.416c1.3,5.344-2.009,10.78-7.354,12.08L863.413,627.94
		c-5.345,1.3-10.779-2.009-12.08-7.354l-19.612-80.648c-1.301-5.345,2.009-10.78,7.354-12.08l145.753-35.445
		c5.344-1.3,10.78,2.01,12.08,7.354L1016.52,580.416z"/>
</g>
<g>
	<circle style="fill:#434C5C;" cx="400.607" cy="496" r="5.688"/>
	<circle style="fill:#434C5C;" cx="462.607" cy="496" r="5.688"/>
</g>
</svg>
