<?xml version="1.0" encoding="iso-8859-1"?>
<!-- Generator: Adobe Illustrator 16.0.0, SVG Export Plug-In . SVG Version: 6.00 Build 0)  -->
<!DOCTYPE svg PUBLIC "-//W3C//DTD SVG 1.1//EN" "http://www.w3.org/Graphics/SVG/1.1/DTD/svg11.dtd">
<svg version="1.1" xmlns="http://www.w3.org/2000/svg" xmlns:xlink="http://www.w3.org/1999/xlink" x="0px" y="0px" width="800px"
	 height="800px" viewBox="0 0 800 800" style="enable-background:new 0 0 800 800;" xml:space="preserve">
<g id="BACKGROUND">
	<rect style="fill:#FAFBFB;" width="800" height="800"/>
	<g>
		<g>
			<path style="fill:#44B3E6;" d="M288.492,774.286v-0.257c-0.349,0.398-0.692,0.724-1.031,0.973
				c-0.338,0.251-0.706,0.441-1.102,0.57c-0.396,0.131-0.827,0.195-1.296,0.195c-0.621,0-1.196-0.131-1.725-0.394
				c-0.528-0.263-0.986-0.64-1.372-1.126c-0.387-0.488-0.68-1.06-0.879-1.719s-0.299-1.372-0.299-2.137
				c0-1.621,0.396-2.886,1.188-3.791c0.792-0.904,1.833-1.357,3.125-1.357c0.747,0,1.377,0.129,1.89,0.384
				c0.513,0.257,1.013,0.651,1.501,1.183v-3.828c0-0.531,0.105-0.934,0.318-1.205c0.211-0.273,0.514-0.408,0.907-0.408
				c0.393,0,0.694,0.125,0.907,0.375c0.212,0.251,0.318,0.617,0.318,1.105v11.437c0,0.493-0.113,0.864-0.342,1.111
				c-0.228,0.245-0.522,0.37-0.883,0.37c-0.354,0-0.647-0.129-0.879-0.385C288.607,775.125,288.492,774.76,288.492,774.286z
				 M283.392,770.477c0,0.703,0.109,1.302,0.328,1.796c0.219,0.493,0.518,0.866,0.897,1.114c0.38,0.252,0.795,0.377,1.244,0.377
				c0.456,0,0.872-0.119,1.25-0.356c0.376-0.237,0.677-0.603,0.902-1.092c0.225-0.491,0.337-1.104,0.337-1.839
				c0-0.69-0.112-1.283-0.337-1.782c-0.225-0.495-0.528-0.875-0.912-1.14c-0.383-0.262-0.803-0.393-1.258-0.393
				c-0.475,0-0.899,0.135-1.273,0.403c-0.374,0.269-0.663,0.654-0.869,1.158C283.494,769.229,283.392,769.813,283.392,770.477z"/>
			<path style="fill:#44B3E6;" d="M299.926,771.133h-5.071c0.006,0.588,0.125,1.107,0.356,1.558c0.23,0.45,0.538,0.789,0.921,1.017
				c0.383,0.229,0.806,0.34,1.268,0.34c0.31,0,0.593-0.035,0.85-0.106c0.257-0.075,0.505-0.188,0.746-0.343
				c0.241-0.154,0.462-0.322,0.665-0.499c0.202-0.179,0.464-0.419,0.788-0.724c0.133-0.113,0.323-0.17,0.571-0.17
				c0.266,0,0.48,0.074,0.645,0.219c0.165,0.146,0.248,0.352,0.248,0.617c0,0.234-0.093,0.508-0.275,0.822
				c-0.185,0.313-0.462,0.613-0.832,0.902c-0.372,0.287-0.835,0.525-1.397,0.717c-0.56,0.189-1.204,0.285-1.933,0.285
				c-1.665,0-2.96-0.477-3.884-1.426s-1.386-2.237-1.386-3.865c0-0.766,0.113-1.478,0.341-2.132
				c0.229-0.655,0.561-1.217,0.997-1.687c0.437-0.468,0.975-0.826,1.615-1.078c0.639-0.25,1.349-0.373,2.127-0.373
				c1.013,0,1.882,0.211,2.606,0.641c0.726,0.426,1.27,0.979,1.63,1.655c0.36,0.679,0.542,1.37,0.542,2.071
				c0,0.652-0.187,1.074-0.56,1.27C301.13,771.036,300.604,771.133,299.926,771.133z M294.854,769.661h4.702
				c-0.063-0.888-0.303-1.552-0.717-1.991c-0.415-0.439-0.96-0.66-1.638-0.66c-0.646,0-1.177,0.223-1.591,0.67
				C295.195,768.125,294.944,768.786,294.854,769.661z"/>
			<path style="fill:#44B3E6;" d="M311.741,772.375c0,0.717-0.173,1.33-0.522,1.84c-0.348,0.509-0.862,0.896-1.543,1.159
				c-0.68,0.263-1.508,0.394-2.483,0.394c-0.931,0-1.729-0.144-2.394-0.428c-0.665-0.285-1.156-0.643-1.472-1.067
				c-0.317-0.429-0.475-0.857-0.475-1.288c0-0.285,0.101-0.529,0.304-0.731c0.202-0.202,0.459-0.304,0.77-0.304
				c0.271,0,0.48,0.066,0.626,0.199c0.146,0.134,0.286,0.321,0.417,0.561c0.266,0.463,0.585,0.807,0.956,1.036
				c0.37,0.228,0.875,0.341,1.515,0.341c0.519,0,0.945-0.116,1.277-0.346c0.332-0.233,0.498-0.496,0.498-0.795
				c0-0.455-0.172-0.787-0.518-0.996c-0.345-0.209-0.914-0.409-1.705-0.6c-0.893-0.221-1.619-0.453-2.18-0.697
				c-0.561-0.242-1.008-0.564-1.344-0.963c-0.335-0.4-0.503-0.891-0.503-1.473c0-0.52,0.155-1.01,0.465-1.473
				c0.311-0.462,0.768-0.83,1.374-1.105c0.604-0.277,1.333-0.415,2.188-0.415c0.671,0,1.275,0.069,1.809,0.21
				c0.536,0.139,0.983,0.326,1.34,0.562c0.358,0.233,0.63,0.493,0.816,0.777c0.187,0.285,0.28,0.563,0.28,0.837
				c0,0.297-0.1,0.541-0.298,0.731c-0.199,0.188-0.482,0.284-0.851,0.284c-0.266,0-0.492-0.076-0.679-0.229
				c-0.187-0.151-0.4-0.379-0.641-0.684c-0.196-0.252-0.426-0.456-0.693-0.607c-0.266-0.152-0.627-0.228-1.083-0.228
				c-0.469,0-0.857,0.099-1.168,0.3c-0.31,0.197-0.465,0.446-0.465,0.744c0,0.272,0.114,0.496,0.341,0.67
				c0.229,0.174,0.535,0.319,0.922,0.432c0.386,0.113,0.917,0.252,1.596,0.417c0.803,0.198,1.46,0.433,1.97,0.704
				c0.509,0.271,0.896,0.594,1.16,0.965C311.61,771.479,311.741,771.9,311.741,772.375z"/>
			<path style="fill:#44B3E6;" d="M314.39,764.02c-0.361,0-0.669-0.112-0.926-0.333s-0.385-0.534-0.385-0.94
				c0-0.368,0.131-0.67,0.394-0.908s0.569-0.355,0.917-0.355c0.336,0,0.633,0.107,0.893,0.322c0.26,0.217,0.39,0.529,0.39,0.941
				c0,0.398-0.127,0.711-0.381,0.936C315.039,763.906,314.738,764.02,314.39,764.02z M315.672,766.697v7.493
				c0,0.519-0.124,0.913-0.371,1.179c-0.248,0.266-0.56,0.398-0.94,0.398s-0.689-0.136-0.926-0.408
				c-0.238-0.273-0.356-0.662-0.356-1.169v-7.418c0-0.513,0.118-0.898,0.356-1.159c0.237-0.259,0.546-0.39,0.926-0.39
				s0.693,0.131,0.94,0.39C315.549,765.874,315.672,766.234,315.672,766.697z"/>
			<path style="fill:#44B3E6;" d="M327.031,767.124v7.532c0,0.861-0.093,1.602-0.277,2.223c-0.182,0.62-0.477,1.133-0.883,1.539
				c-0.405,0.404-0.936,0.706-1.59,0.901c-0.655,0.196-1.471,0.294-2.446,0.294c-0.893,0-1.69-0.125-2.394-0.375
				c-0.702-0.25-1.243-0.573-1.624-0.969c-0.379-0.396-0.57-0.803-0.57-1.221c0-0.316,0.108-0.575,0.324-0.773
				c0.215-0.199,0.475-0.299,0.778-0.299c0.38,0,0.712,0.168,0.998,0.503c0.139,0.171,0.283,0.345,0.432,0.519
				s0.314,0.322,0.494,0.446c0.181,0.122,0.397,0.214,0.65,0.275c0.253,0.059,0.545,0.089,0.874,0.089
				c0.671,0,1.192-0.092,1.563-0.279s0.63-0.449,0.779-0.784c0.149-0.334,0.236-0.694,0.261-1.077c0.025-0.385,0.044-1,0.057-1.849
				c-0.399,0.559-0.859,0.983-1.382,1.274c-0.522,0.291-1.145,0.436-1.866,0.436c-0.868,0-1.625-0.221-2.275-0.664
				c-0.648-0.443-1.147-1.064-1.495-1.862c-0.349-0.798-0.522-1.718-0.522-2.763c0-0.779,0.105-1.483,0.317-2.108
				c0.213-0.629,0.515-1.157,0.907-1.587c0.393-0.432,0.845-0.756,1.358-0.975c0.513-0.217,1.076-0.326,1.691-0.326
				c0.734,0,1.371,0.141,1.909,0.421c0.538,0.284,1.039,0.726,1.5,1.327v-0.354c0-0.448,0.11-0.797,0.332-1.044
				c0.222-0.246,0.507-0.371,0.855-0.371c0.5,0,0.832,0.165,0.997,0.489C326.948,766.039,327.031,766.51,327.031,767.124z
				 M319.518,770.411c0,1.05,0.229,1.846,0.688,2.384c0.459,0.539,1.053,0.807,1.781,0.807c0.43,0,0.837-0.115,1.22-0.346
				c0.384-0.232,0.695-0.58,0.937-1.045c0.24-0.466,0.361-1.031,0.361-1.695c0-1.057-0.232-1.881-0.698-2.469
				c-0.466-0.59-1.078-0.885-1.838-0.885c-0.741,0-1.334,0.282-1.78,0.846C319.741,768.57,319.518,769.373,319.518,770.411z"/>
			<path style="fill:#44B3E6;" d="M331.152,766.658v0.314c0.455-0.602,0.954-1.043,1.496-1.325s1.163-0.424,1.866-0.424
				c0.684,0,1.295,0.15,1.833,0.448c0.538,0.298,0.941,0.719,1.206,1.262c0.172,0.316,0.282,0.66,0.333,1.025
				c0.051,0.369,0.077,0.836,0.077,1.406v4.825c0,0.519-0.119,0.913-0.357,1.179c-0.237,0.266-0.546,0.398-0.926,0.398
				c-0.387,0-0.7-0.136-0.94-0.408c-0.241-0.273-0.361-0.662-0.361-1.169v-4.321c0-0.855-0.119-1.51-0.356-1.962
				c-0.238-0.452-0.71-0.679-1.42-0.679c-0.461,0-0.883,0.137-1.263,0.412c-0.38,0.277-0.659,0.656-0.836,1.137
				c-0.126,0.387-0.19,1.107-0.19,2.164v3.249c0,0.525-0.123,0.921-0.365,1.184c-0.244,0.263-0.559,0.394-0.945,0.394
				c-0.375,0-0.681-0.136-0.922-0.408c-0.24-0.273-0.361-0.662-0.361-1.169v-7.493c0-0.494,0.107-0.863,0.323-1.107
				s0.51-0.366,0.883-0.366c0.229,0,0.435,0.055,0.619,0.163c0.183,0.108,0.331,0.27,0.441,0.483
				C331.097,766.086,331.152,766.349,331.152,766.658z"/>
			<path style="fill:#44B3E6;" d="M346.926,771.133h-5.071c0.007,0.588,0.125,1.107,0.356,1.558c0.231,0.45,0.538,0.789,0.921,1.017
				c0.382,0.229,0.805,0.34,1.267,0.34c0.311,0,0.594-0.035,0.851-0.106c0.255-0.075,0.504-0.188,0.746-0.343
				c0.24-0.154,0.461-0.322,0.665-0.499c0.202-0.179,0.464-0.419,0.788-0.724c0.133-0.113,0.323-0.17,0.57-0.17
				c0.266,0,0.481,0.074,0.646,0.219c0.165,0.146,0.247,0.352,0.247,0.617c0,0.234-0.091,0.508-0.275,0.822
				c-0.184,0.313-0.461,0.613-0.832,0.902c-0.371,0.287-0.835,0.525-1.396,0.717c-0.561,0.189-1.205,0.285-1.933,0.285
				c-1.665,0-2.96-0.477-3.885-1.426c-0.923-0.949-1.386-2.237-1.386-3.865c0-0.766,0.114-1.478,0.342-2.132
				c0.228-0.655,0.561-1.217,0.998-1.687c0.437-0.468,0.975-0.826,1.614-1.078c0.639-0.25,1.349-0.373,2.128-0.373
				c1.013,0,1.881,0.211,2.606,0.641c0.726,0.426,1.269,0.979,1.63,1.655c0.36,0.679,0.542,1.37,0.542,2.071
				c0,0.652-0.187,1.074-0.561,1.27C348.13,771.036,347.604,771.133,346.926,771.133z M341.855,769.661h4.701
				c-0.063-0.888-0.302-1.552-0.717-1.991c-0.415-0.439-0.961-0.66-1.638-0.66c-0.646,0-1.177,0.223-1.592,0.67
				C342.194,768.125,341.944,768.786,341.855,769.661z"/>
			<path style="fill:#44B3E6;" d="M357.496,774.286v-0.257c-0.348,0.398-0.691,0.724-1.03,0.973
				c-0.339,0.251-0.706,0.441-1.102,0.57c-0.395,0.131-0.828,0.195-1.296,0.195c-0.622,0-1.196-0.131-1.724-0.394
				c-0.529-0.263-0.986-0.64-1.373-1.126c-0.387-0.488-0.679-1.06-0.878-1.719c-0.2-0.659-0.299-1.372-0.299-2.137
				c0-1.621,0.396-2.886,1.187-3.791c0.792-0.904,1.833-1.357,3.125-1.357c0.747,0,1.377,0.129,1.89,0.384
				c0.513,0.257,1.013,0.651,1.5,1.183v-3.828c0-0.531,0.106-0.934,0.319-1.205c0.211-0.273,0.515-0.408,0.907-0.408
				c0.392,0,0.694,0.125,0.907,0.375c0.212,0.251,0.318,0.617,0.318,1.105v11.437c0,0.493-0.114,0.864-0.342,1.111
				c-0.228,0.245-0.522,0.37-0.883,0.37c-0.354,0-0.647-0.129-0.879-0.385C357.612,775.125,357.496,774.76,357.496,774.286z
				 M352.396,770.477c0,0.703,0.108,1.302,0.327,1.796c0.218,0.493,0.518,0.866,0.898,1.114c0.379,0.252,0.794,0.377,1.243,0.377
				c0.457,0,0.873-0.119,1.249-0.356c0.377-0.237,0.678-0.603,0.902-1.092c0.225-0.491,0.337-1.104,0.337-1.839
				c0-0.69-0.112-1.283-0.337-1.782c-0.224-0.495-0.528-0.875-0.912-1.14c-0.384-0.262-0.803-0.393-1.259-0.393
				c-0.474,0-0.899,0.135-1.272,0.403c-0.373,0.269-0.663,0.654-0.869,1.158C352.499,769.229,352.396,769.813,352.396,770.477z"/>
			<path style="fill:#44B3E6;" d="M368.094,762.85v3.961c0.487-0.506,0.984-0.896,1.491-1.163c0.506-0.27,1.134-0.403,1.881-0.403
				c0.861,0,1.616,0.203,2.266,0.611c0.648,0.41,1.151,1.002,1.51,1.776c0.357,0.775,0.537,1.696,0.537,2.761
				c0,0.785-0.1,1.504-0.299,2.16c-0.2,0.654-0.49,1.223-0.869,1.704c-0.38,0.481-0.841,0.854-1.382,1.117
				c-0.542,0.263-1.139,0.394-1.791,0.394c-0.399,0-0.775-0.048-1.125-0.144c-0.352-0.095-0.651-0.218-0.898-0.375
				c-0.246-0.154-0.457-0.313-0.631-0.479c-0.174-0.163-0.404-0.412-0.689-0.74v0.257c0,0.487-0.117,0.856-0.352,1.106
				c-0.233,0.25-0.531,0.375-0.893,0.375c-0.367,0-0.66-0.125-0.878-0.375c-0.219-0.25-0.328-0.619-0.328-1.106v-11.323
				c0-0.524,0.106-0.923,0.317-1.19c0.212-0.27,0.509-0.403,0.889-0.403c0.399,0,0.706,0.127,0.921,0.384
				C367.986,762.01,368.094,762.374,368.094,762.85z M368.218,770.553c0,1.033,0.236,1.825,0.708,2.379
				c0.472,0.555,1.091,0.832,1.857,0.832c0.652,0,1.214-0.282,1.686-0.85c0.472-0.568,0.708-1.379,0.708-2.438
				c0-0.684-0.097-1.273-0.294-1.766c-0.197-0.494-0.475-0.877-0.835-1.146c-0.361-0.269-0.783-0.403-1.264-0.403
				c-0.494,0-0.935,0.135-1.32,0.403c-0.386,0.269-0.69,0.658-0.912,1.169C368.329,769.242,368.218,769.85,368.218,770.553z"/>
			<path style="fill:#44B3E6;" d="M379.14,776.091l0.237-0.581l-3.191-8.035c-0.196-0.461-0.295-0.797-0.295-1.006
				c0-0.223,0.058-0.428,0.171-0.617c0.114-0.19,0.271-0.342,0.47-0.455c0.2-0.115,0.407-0.173,0.623-0.173
				c0.373,0,0.655,0.12,0.846,0.356c0.19,0.238,0.357,0.577,0.503,1.021l2.194,6.383l2.08-5.938
				c0.164-0.479,0.313-0.856,0.446-1.129c0.133-0.273,0.273-0.457,0.422-0.551c0.148-0.095,0.359-0.144,0.632-0.144
				c0.197,0,0.385,0.052,0.565,0.158c0.18,0.104,0.319,0.245,0.417,0.423c0.098,0.177,0.148,0.363,0.148,0.559
				c-0.026,0.121-0.066,0.291-0.124,0.515c-0.058,0.221-0.126,0.446-0.208,0.673l-3.381,8.854c-0.292,0.778-0.577,1.389-0.855,1.832
				s-0.647,0.785-1.106,1.021c-0.459,0.239-1.078,0.356-1.857,0.356c-0.759,0-1.33-0.081-1.708-0.246
				c-0.381-0.166-0.57-0.467-0.57-0.902c0-0.297,0.089-0.527,0.271-0.689c0.18-0.16,0.448-0.243,0.801-0.243
				c0.14,0,0.276,0.021,0.409,0.06c0.165,0.036,0.307,0.057,0.427,0.057c0.297,0,0.532-0.044,0.704-0.135
				c0.17-0.088,0.324-0.24,0.46-0.461C378.806,776.836,378.963,776.514,379.14,776.091z"/>
		</g>
		<g>
			<path style="fill:#44B3E6;" d="M416.703,765.449h0.618v-0.779c0-0.813,0.1-1.457,0.307-1.938
				c0.204-0.479,0.556-0.825,1.047-1.044c0.49-0.218,1.163-0.327,2.017-0.327c1.52,0,2.272,0.368,2.272,1.115
				c0,0.238-0.079,0.443-0.24,0.615c-0.154,0.168-0.343,0.256-0.558,0.256c-0.1,0-0.278-0.02-0.527-0.061
				c-0.237-0.033-0.452-0.055-0.623-0.055c-0.468,0-0.767,0.141-0.905,0.415c-0.127,0.274-0.195,0.668-0.195,1.185v0.617h0.633
				c0.991,0,1.481,0.297,1.481,0.896c0,0.419-0.127,0.69-0.393,0.804c-0.262,0.115-0.624,0.171-1.089,0.171h-0.633v6.871
				c0,0.511-0.12,0.901-0.369,1.169c-0.241,0.272-0.554,0.406-0.942,0.406c-0.367,0-0.671-0.134-0.918-0.406
				c-0.244-0.268-0.364-0.658-0.364-1.169v-6.871h-0.714c-0.389,0-0.683-0.083-0.894-0.261c-0.209-0.172-0.314-0.4-0.314-0.678
				C415.399,765.757,415.834,765.449,416.703,765.449"/>
			<path style="fill:#44B3E6;" d="M425.192,772.023v2.167c0,0.524-0.133,0.919-0.374,1.181c-0.247,0.266-0.559,0.395-0.938,0.395
				c-0.382,0-0.688-0.131-0.927-0.4c-0.236-0.264-0.36-0.656-0.36-1.175v-7.222c0-1.166,0.42-1.749,1.261-1.749
				c0.434,0,0.743,0.135,0.934,0.408c0.189,0.272,0.295,0.673,0.317,1.208c0.308-0.535,0.624-0.936,0.948-1.208
				c0.332-0.273,0.763-0.408,1.31-0.408c0.549,0,1.072,0.135,1.585,0.408c0.516,0.272,0.771,0.636,0.771,1.085
				c0,0.314-0.11,0.58-0.326,0.781c-0.22,0.209-0.454,0.311-0.706,0.311c-0.1,0-0.331-0.063-0.692-0.18
				c-0.365-0.113-0.688-0.172-0.963-0.172c-0.38,0-0.692,0.102-0.932,0.297c-0.242,0.205-0.431,0.498-0.564,0.887
				c-0.129,0.396-0.219,0.866-0.272,1.404C425.215,770.584,425.192,771.245,425.192,772.023"/>
			<path style="fill:#44B3E6;" d="M437.113,771.131h-5.074c0.009,0.588,0.124,1.109,0.354,1.559c0.235,0.445,0.54,0.785,0.925,1.016
				c0.385,0.229,0.804,0.34,1.269,0.34c0.311,0,0.593-0.033,0.85-0.111c0.254-0.068,0.505-0.185,0.745-0.34
				c0.242-0.153,0.46-0.318,0.664-0.5c0.202-0.176,0.467-0.416,0.79-0.72c0.135-0.112,0.324-0.173,0.568-0.173
				c0.269,0,0.481,0.074,0.649,0.221c0.166,0.147,0.243,0.352,0.243,0.617c0,0.236-0.089,0.508-0.268,0.82
				c-0.188,0.316-0.463,0.615-0.836,0.906c-0.374,0.285-0.839,0.527-1.397,0.714c-0.56,0.19-1.206,0.286-1.932,0.286
				c-1.671,0-2.964-0.473-3.887-1.422c-0.924-0.953-1.392-2.242-1.392-3.869c0-0.766,0.117-1.479,0.348-2.134
				c0.225-0.658,0.558-1.217,0.999-1.688c0.436-0.471,0.97-0.829,1.612-1.079c0.638-0.248,1.347-0.373,2.128-0.373
				c1.011,0,1.881,0.213,2.606,0.645c0.724,0.424,1.273,0.977,1.629,1.654c0.361,0.682,0.542,1.369,0.542,2.074
				c0,0.649-0.188,1.07-0.562,1.267C438.315,771.033,437.791,771.131,437.113,771.131 M432.039,769.656h4.701
				c-0.063-0.885-0.298-1.55-0.714-1.986c-0.418-0.443-0.959-0.66-1.641-0.66c-0.646,0-1.177,0.22-1.592,0.668
				C432.38,768.124,432.126,768.782,432.039,769.656"/>
			<path style="fill:#44B3E6;" d="M447.9,771.131h-5.073c0.006,0.588,0.125,1.109,0.354,1.559c0.231,0.445,0.539,0.785,0.921,1.016
				c0.383,0.229,0.806,0.34,1.271,0.34c0.308,0,0.593-0.033,0.845-0.111c0.259-0.068,0.506-0.185,0.75-0.34
				c0.242-0.153,0.46-0.318,0.664-0.5c0.199-0.176,0.464-0.416,0.788-0.72c0.135-0.112,0.326-0.173,0.568-0.173
				c0.269,0,0.483,0.074,0.65,0.221c0.165,0.147,0.24,0.352,0.24,0.617c0,0.236-0.087,0.508-0.273,0.82
				c-0.177,0.316-0.455,0.615-0.83,0.906c-0.37,0.285-0.84,0.527-1.396,0.714c-0.558,0.19-1.208,0.286-1.935,0.286
				c-1.667,0-2.959-0.473-3.887-1.422c-0.924-0.953-1.389-2.242-1.389-3.869c0-0.766,0.116-1.479,0.348-2.134
				c0.227-0.658,0.559-1.217,0.996-1.688c0.436-0.471,0.973-0.829,1.614-1.079c0.638-0.248,1.351-0.373,2.129-0.373
				c1.009,0,1.878,0.213,2.613,0.645c0.72,0.424,1.266,0.977,1.621,1.654c0.359,0.682,0.545,1.369,0.545,2.074
				c0,0.649-0.191,1.07-0.562,1.267C449.101,771.033,448.576,771.131,447.9,771.131 M442.827,769.656h4.701
				c-0.063-0.885-0.304-1.55-0.715-1.986c-0.421-0.443-0.962-0.66-1.643-0.66c-0.646,0-1.176,0.22-1.593,0.668
				C443.165,768.124,442.911,768.782,442.827,769.656"/>
			<path style="fill:#44B3E6;" d="M453.58,766.678v0.311c0.486-0.6,0.994-1.041,1.524-1.324c0.519-0.283,1.118-0.426,1.782-0.426
				c0.795,0,1.535,0.207,2.207,0.617c0.671,0.414,1.198,1.016,1.589,1.806c0.39,0.796,0.586,1.729,0.586,2.813
				c0,0.797-0.112,1.532-0.336,2.201s-0.537,1.228-0.929,1.681c-0.394,0.45-0.855,0.801-1.39,1.046
				c-0.542,0.24-1.111,0.363-1.728,0.363c-0.738,0-1.364-0.148-1.865-0.447c-0.503-0.293-0.982-0.734-1.441-1.307v3.893
				c0,1.136-0.416,1.711-1.244,1.711c-0.49,0-0.809-0.146-0.972-0.439c-0.151-0.299-0.233-0.725-0.233-1.291V766.69
				c0-0.495,0.106-0.858,0.32-1.106c0.215-0.239,0.512-0.364,0.885-0.364c0.369,0,0.666,0.125,0.896,0.374
				C453.467,765.848,453.58,766.203,453.58,766.678 M458.664,770.445c0-0.684-0.106-1.273-0.314-1.762
				c-0.209-0.493-0.499-0.868-0.866-1.129c-0.367-0.262-0.782-0.396-1.232-0.396c-0.714,0-1.318,0.285-1.809,0.845
				c-0.492,0.566-0.739,1.396-0.739,2.493c0,1.026,0.244,1.832,0.735,2.406c0.487,0.572,1.086,0.857,1.813,0.857
				c0.429,0,0.83-0.125,1.197-0.371c0.371-0.254,0.665-0.627,0.884-1.127C458.553,771.76,458.664,771.154,458.664,770.445"/>
			<path style="fill:#44B3E6;" d="M463.88,764.012c-0.362,0-0.669-0.113-0.923-0.334c-0.26-0.223-0.388-0.533-0.388-0.938
				c0-0.367,0.131-0.67,0.396-0.91c0.262-0.234,0.566-0.355,0.914-0.355c0.34,0,0.636,0.107,0.894,0.32
				c0.26,0.219,0.391,0.533,0.391,0.945c0,0.4-0.127,0.711-0.378,0.936C464.532,763.898,464.231,764.012,463.88,764.012
				 M465.164,766.69v7.503c0,0.516-0.124,0.908-0.37,1.172c-0.25,0.27-0.561,0.4-0.941,0.4s-0.685-0.134-0.928-0.406
				c-0.233-0.277-0.355-0.665-0.355-1.166v-7.428c0-0.51,0.122-0.895,0.355-1.154c0.243-0.266,0.547-0.392,0.928-0.392
				s0.691,0.126,0.941,0.392C465.04,765.871,465.164,766.232,465.164,766.69"/>
			<path style="fill:#44B3E6;" d="M473.523,774.582l-2.284-3.767l-1.408,1.329v2.064c0,0.5-0.133,0.883-0.396,1.15
				c-0.257,0.272-0.566,0.406-0.906,0.406c-0.398,0-0.715-0.131-0.94-0.4c-0.227-0.264-0.344-0.656-0.344-1.175v-11.063
				c0-0.573,0.114-1.011,0.331-1.313c0.223-0.305,0.545-0.453,0.953-0.453c0.399,0,0.713,0.138,0.949,0.412
				c0.234,0.27,0.354,0.674,0.354,1.201v6.293l2.916-3.063c0.362-0.375,0.633-0.64,0.827-0.777c0.189-0.139,0.419-0.208,0.689-0.208
				c0.326,0,0.594,0.103,0.815,0.309c0.211,0.206,0.32,0.466,0.32,0.772c0,0.379-0.354,0.89-1.055,1.521l-1.377,1.264l2.659,4.182
				c0.193,0.314,0.339,0.545,0.424,0.706c0.084,0.159,0.13,0.319,0.13,0.463c0,0.412-0.114,0.733-0.341,0.975
				c-0.225,0.237-0.523,0.354-0.886,0.354c-0.316,0-0.563-0.082-0.733-0.256S473.813,775.025,473.523,774.582"/>
			<path style="fill:#44B3E6;" d="M479.159,775.766c-0.392,0-0.728-0.127-1.014-0.381c-0.284-0.25-0.429-0.605-0.429-1.065
				c0-0.386,0.138-0.718,0.41-0.995c0.274-0.279,0.607-0.418,1.008-0.418c0.397,0,0.735,0.139,1.022,0.412
				c0.279,0.275,0.422,0.611,0.422,1.001c0,0.453-0.143,0.809-0.422,1.06C479.87,775.639,479.538,775.766,479.159,775.766"/>
			<path style="fill:#44B3E6;" d="M492.058,772.555c0,0.32-0.097,0.669-0.291,1.035c-0.191,0.369-0.488,0.718-0.886,1.049
				c-0.395,0.332-0.892,0.604-1.495,0.805c-0.601,0.201-1.28,0.306-2.03,0.306c-1.606,0-2.858-0.47-3.758-1.4
				c-0.896-0.937-1.346-2.19-1.346-3.761c0-1.066,0.204-2.006,0.619-2.824c0.407-0.814,1.004-1.447,1.781-1.893
				c0.779-0.449,1.716-0.67,2.794-0.67c0.674,0,1.288,0.098,1.853,0.295c0.561,0.194,1.032,0.451,1.425,0.758
				c0.387,0.315,0.686,0.645,0.89,0.992c0.207,0.353,0.308,0.682,0.308,0.988s-0.113,0.57-0.343,0.787
				c-0.235,0.215-0.516,0.323-0.839,0.323c-0.219,0-0.397-0.056-0.541-0.165c-0.144-0.113-0.305-0.291-0.479-0.543
				c-0.317-0.479-0.646-0.842-0.996-1.078c-0.343-0.243-0.78-0.363-1.313-0.363c-0.762,0-1.384,0.299-1.854,0.898
				c-0.468,0.596-0.703,1.42-0.703,2.453c0,0.489,0.063,0.939,0.183,1.348c0.117,0.408,0.291,0.756,0.521,1.045
				c0.23,0.287,0.504,0.505,0.826,0.654c0.324,0.152,0.681,0.226,1.063,0.226c0.521,0,0.967-0.12,1.337-0.36
				c0.376-0.242,0.702-0.607,0.986-1.103c0.158-0.291,0.327-0.519,0.509-0.685c0.183-0.162,0.409-0.248,0.676-0.248
				c0.316,0,0.58,0.123,0.786,0.362C491.951,772.025,492.058,772.285,492.058,772.555"/>
			<path style="fill:#44B3E6;" d="M503.248,770.495c0,0.769-0.122,1.484-0.355,2.138c-0.247,0.653-0.592,1.213-1.05,1.68
				c-0.455,0.469-1.002,0.828-1.632,1.08c-0.64,0.246-1.35,0.375-2.139,0.375c-0.785,0-1.493-0.129-2.121-0.383
				c-0.623-0.25-1.171-0.615-1.626-1.082c-0.461-0.477-0.809-1.035-1.052-1.678c-0.229-0.643-0.351-1.354-0.351-2.13
				c0-0.786,0.124-1.507,0.358-2.159c0.242-0.653,0.589-1.212,1.039-1.672c0.451-0.463,0.993-0.818,1.631-1.07
				c0.644-0.249,1.35-0.374,2.121-0.374c0.784,0,1.498,0.125,2.139,0.382c0.638,0.25,1.183,0.614,1.644,1.078
				c0.458,0.475,0.803,1.029,1.04,1.672C503.128,769.003,503.248,769.713,503.248,770.495 M500.645,770.495
				c0-1.059-0.234-1.882-0.698-2.47c-0.463-0.596-1.09-0.887-1.874-0.887c-0.508,0-0.955,0.131-1.343,0.394
				c-0.387,0.261-0.681,0.649-0.89,1.163s-0.315,1.113-0.315,1.8c0,0.679,0.103,1.267,0.31,1.772
				c0.208,0.512,0.502,0.897,0.886,1.166c0.386,0.268,0.835,0.404,1.353,0.404c0.784,0,1.411-0.295,1.874-0.891
				C500.41,772.356,500.645,771.536,500.645,770.495"/>
			<path style="fill:#44B3E6;" d="M513.14,770.686v3.446c0,0.546-0.12,0.95-0.369,1.228c-0.25,0.272-0.571,0.408-0.978,0.408
				c-0.393,0-0.714-0.136-0.951-0.408c-0.247-0.277-0.372-0.682-0.372-1.228V770c0-0.652-0.021-1.162-0.063-1.523
				c-0.046-0.354-0.168-0.656-0.362-0.883c-0.196-0.236-0.509-0.352-0.931-0.352c-0.851,0-1.407,0.29-1.677,0.881
				c-0.268,0.576-0.406,1.413-0.406,2.506v3.503c0,0.538-0.122,0.946-0.361,1.224c-0.249,0.272-0.567,0.412-0.965,0.412
				c-0.396,0-0.717-0.14-0.967-0.412c-0.252-0.277-0.376-0.686-0.376-1.224v-7.419c0-0.489,0.111-0.861,0.335-1.111
				c0.229-0.257,0.526-0.382,0.89-0.382c0.356,0,0.651,0.122,0.892,0.354c0.236,0.239,0.354,0.566,0.354,0.984v0.246
				c0.453-0.535,0.935-0.932,1.444-1.181c0.517-0.261,1.082-0.386,1.713-0.386c0.651,0,1.211,0.131,1.678,0.39
				c0.47,0.261,0.854,0.654,1.16,1.177c0.439-0.529,0.909-0.923,1.41-1.181c0.5-0.257,1.053-0.386,1.662-0.386
				c0.706,0,1.321,0.143,1.834,0.419c0.51,0.278,0.893,0.679,1.147,1.194c0.221,0.473,0.33,1.211,0.33,2.218v5.063
				c0,0.546-0.122,0.95-0.367,1.228c-0.246,0.272-0.575,0.408-0.979,0.408c-0.395,0-0.714-0.14-0.965-0.412
				c-0.25-0.277-0.376-0.686-0.376-1.224v-4.362c0-0.559-0.023-1.002-0.069-1.337c-0.047-0.338-0.177-0.62-0.383-0.847
				c-0.212-0.229-0.53-0.344-0.953-0.344c-0.342,0-0.666,0.106-0.974,0.307c-0.307,0.199-0.547,0.477-0.721,0.813
				C513.238,768.801,513.14,769.574,513.14,770.686"/>
		</g>
		<g>
			<path style="fill:#44B3E6;" d="M392.435,769.867c-0.002-0.006-0.002-0.01-0.002-0.019
				C392.433,769.857,392.433,769.861,392.435,769.867z"/>
			<path style="fill:#44B3E6;" d="M392.566,770.695c0.002,0,0.002,0,0.003,0c-0.05-0.236-0.088-0.471-0.119-0.701
				C392.48,770.227,392.519,770.463,392.566,770.695z"/>
			<path style="fill:#44B3E6;" d="M393.424,773.102c-0.006-0.01-0.011-0.021-0.017-0.032
				C393.414,773.08,393.418,773.092,393.424,773.102z"/>
			<path style="fill:#44B3E6;" d="M393.342,772.941c-0.022-0.043-0.044-0.09-0.065-0.133
				C393.298,772.855,393.32,772.898,393.342,772.941z"/>
			<path style="fill:#44B3E6;" d="M392.807,771.623c0.127,0.4,0.28,0.788,0.457,1.158c-0.18-0.378-0.33-0.768-0.454-1.158
				C392.81,771.623,392.808,771.623,392.807,771.623z"/>
			<path style="fill:#44B3E6;" d="M402.473,759.93c0.501,0,0.871,0.04,1.295,0.111l0.12-0.762c0,0-1.171-0.361-2.711-0.234
				l-0.121-0.416c0.479-0.1,0.838-0.525,0.838-1.034c0-0.581-0.474-1.054-1.057-1.054s-1.056,0.473-1.056,1.054
				c0,0.509,0.358,0.935,0.836,1.034l0.134,0.463c-1.634,0.225-2.935,0.863-2.935,0.863l0.23,0.705
				c0.989-0.33,1.846-0.529,2.624-0.613C401.432,759.966,402.005,759.93,402.473,759.93z"/>
			<path style="fill:#44B3E6;" d="M393.405,763.789l0.006-0.008c0.039-0.05,0.076-0.098,0.113-0.143l-0.313-0.227l-0.488-0.355
				c-0.027,0.038-0.795,0.744-1.401,2.048c-0.025-0.041-0.056-0.081-0.09-0.12c-0.182-0.198-0.436-0.299-0.758-0.294
				c-0.004,0-0.009,0-0.015,0c-0.2,0-0.337-0.066-0.427-0.147c0.089-0.113,0.143-0.256,0.143-0.412c0-0.369-0.3-0.67-0.669-0.67
				c-0.369,0-0.668,0.301-0.668,0.67s0.3,0.668,0.668,0.668c0.058,0,0.113-0.01,0.167-0.02c0.165,0.182,0.425,0.342,0.808,0.334
				c0.197-0.002,0.341,0.048,0.438,0.154c0.111,0.121,0.148,0.297,0.16,0.428c-0.001,0.002-0.001,0.006-0.003,0.006
				c-0.436,1.189-0.311,2.67-0.311,2.67l1.057,0.041c0.021-0.538,0.099-1.482,0.372-2.229
				C392.719,764.732,393.378,763.826,393.405,763.789z"/>
			<path style="fill:#44B3E6;" d="M411.672,760.814c-0.368,0-0.669,0.299-0.669,0.668c0,0.058,0.009,0.112,0.023,0.166
				c-0.184,0.166-0.343,0.428-0.337,0.811c0.003,0.197-0.048,0.34-0.154,0.436c-0.085,0.075-0.191,0.115-0.296,0.142
				c-0.787-1.103-1.756-1.776-1.756-1.776l-0.759,0.814c0.573,0.521,1.159,1.175,1.729,1.99c0.394,0.563,0.799,1.29,1.136,2.014
				l1.024-0.486c0,0-0.468-1.154-1.126-2.191c0.114-0.039,0.229-0.102,0.331-0.191c0.2-0.181,0.299-0.437,0.293-0.758
				c-0.002-0.209,0.066-0.35,0.148-0.441c0.114,0.086,0.257,0.143,0.412,0.143c0.371,0,0.67-0.301,0.67-0.67
				S412.043,760.814,411.672,760.814z"/>
			<path style="fill:#44B3E6;" d="M409.015,770.016c-1.409,0.688-3.729,1.594-6.781,2.021c-1.198,0.165-2.359,0.228-3.428,0.228
				c-1.391,0-2.62-0.104-3.563-0.224c-1.076-0.136-1.917-0.302-2.432-0.417c0.124,0.391,0.273,0.78,0.454,1.158
				c0.003,0.009,0.008,0.02,0.013,0.027c0.021,0.043,0.043,0.09,0.065,0.133c0.021,0.045,0.043,0.088,0.065,0.128
				c0.006,0.011,0.011,0.022,0.017,0.032c0.303,0.57,0.667,1.096,1.081,1.549c1.44,1.576,2.907,1.824,2.921,1.826l0.023,0.004
				l0.021,0.008c0.013,0.004,1.314,0.424,3.292,0.424c1.945,0,3.854-0.393,5.674-1.166c1.348-0.689,2.622-1.736,3.254-2.67
				c0.488-0.723,0.841-1.494,1.05-2.294c0.111-0.426,0.199-1.108,0.147-1.825C410.49,769.224,409.863,769.604,409.015,770.016z"/>
			<path style="fill:#44B3E6;" d="M393.857,764.123c-0.041,0.06-0.652,0.924-1.135,2.252c-0.362,0.996-0.346,2.444-0.346,2.461
				v0.002c0,0.34,0.019,0.678,0.057,1.011c0,0.009,0,0.013,0.002,0.019c0.004,0.043,0.011,0.084,0.015,0.127
				c0.03,0.23,0.069,0.465,0.119,0.701c0.7,0.179,4.878,1.153,9.548,0.502c2.927-0.407,5.149-1.271,6.499-1.926
				c1.121-0.545,1.842-1.037,2.12-1.239c-0.277-1.028-1.042-2.64-1.743-3.646c-2.005-2.865-4.167-3.601-5.277-3.783
				c-0.424-0.07-0.763-0.109-1.243-0.109c-0.447,0-1.002,0.035-1.743,0.113c-0.743,0.078-1.572,0.273-2.532,0.596
				c-1.348,0.451-2.567,1.16-3.527,2.049l-0.033,0.03C394.496,763.412,394.199,763.688,393.857,764.123z M406.127,763.455
				c0.961,0,1.743,0.781,1.743,1.744c0,0.962-0.782,1.744-1.743,1.744c-0.962,0-1.742-0.782-1.742-1.744
				C404.385,764.236,405.165,763.455,406.127,763.455z M397.885,763.387c1.557,0,2.817,1.262,2.817,2.816
				c0,1.557-1.26,2.814-2.817,2.814c-1.555,0-2.816-1.258-2.816-2.814C395.069,764.648,396.331,763.387,397.885,763.387z"/>
		</g>
	</g>
</g>
<g id="OBJECTS">
	<g>
		<g>
			<linearGradient id="SVGID_1_" gradientUnits="userSpaceOnUse" x1="399.9995" y1="126.5264" x2="399.9995" y2="718.9642">
				<stop  offset="0" style="stop-color:#B6E3EB"/>
				<stop  offset="0.2089" style="stop-color:#BCE5EB"/>
				<stop  offset="0.4855" style="stop-color:#CDEBEB"/>
				<stop  offset="0.7989" style="stop-color:#E8F4EB"/>
				<stop  offset="1" style="stop-color:#FEFCEB"/>
			</linearGradient>
			<circle style="fill:url(#SVGID_1_);" cx="400" cy="399.996" r="304.18"/>
			<path style="fill:#FAFBFB;" d="M563.139,188.563c-5.273-14.355-19.072-24.602-35.261-24.602c-3.131,0-6.18,0.383-9.085,1.111
				c-2.651-13.166-14.28-23.081-28.227-23.081c-12.872,0-23.769,8.447-27.455,20.099h-0.001
				c-5.168-7.347-13.709-12.154-23.376-12.154c-4.05,0-7.903,0.841-11.396,2.374c-0.001,0-0.002,0.001-0.003,0.001
				c-2.168-3.324-4.97-6.196-8.238-8.441c0.071-0.722,0.109-1.454,0.109-2.195c0-12.308-9.978-22.285-22.286-22.285
				c-9.127,0-16.969,5.49-20.414,13.346c-5.426-8.051-14.627-13.346-25.065-13.346c-16.682,0-30.206,13.523-30.206,30.206
				c0,0.149,0.009,0.297,0.011,0.446c-0.725-0.064-1.458-0.103-2.2-0.103c-13.552,0-24.539,10.986-24.539,24.539
				c0,3.445,0.713,6.723,1.995,9.698c-3.553,0.511-6.752,2.081-9.284,4.387c-3.523,3.2-5.731,7.82-5.731,12.958h7.011h28.046
				h105.339h33.698h33.735h48.074h27.045C565.438,196.969,564.626,192.605,563.139,188.563z"/>
			<path style="fill:#FAFBFB;" d="M245.267,304.201H111.217c9.245-27.901,22.443-54.028,38.904-77.688
				c12.353,3.144,22.341,12.151,26.871,23.862c5.864,2.383,10.748,6.692,13.823,12.151c1.184-0.152,2.383-0.22,3.617-0.22
				c14.348,0,26.194,10.833,27.749,24.758c1.64-0.489,3.38-0.76,5.188-0.76c4.225,0,8.112,1.471,11.187,3.938
				C242.647,293.521,245.267,298.557,245.267,304.201z"/>
			<path style="fill:#FAFBFB;" d="M680.113,281.217H579.34c0-5.171,1.47-10.021,4.022-14.111
				c4.697-7.588,13.113-12.624,22.713-12.624c1.605,0,3.194,0.135,4.731,0.406c-0.067-0.879-0.135-1.758-0.135-2.67
				c0-16.004,12.996-28.983,29-28.983c1.284,0,2.568,0.085,3.819,0.254c0.574-1.132,1.2-2.248,1.859-3.313
				C659.174,238.985,670.868,259.451,680.113,281.217z"/>
		</g>
		<linearGradient id="SVGID_2_" gradientUnits="userSpaceOnUse" x1="403.1943" y1="436.4023" x2="403.1943" y2="554.9205">
			<stop  offset="0" style="stop-color:#5ECAE7"/>
			<stop  offset="0.1754" style="stop-color:#59C9E5"/>
			<stop  offset="0.4079" style="stop-color:#48C5E2"/>
			<stop  offset="0.6723" style="stop-color:#2CC0DC"/>
			<stop  offset="0.9584" style="stop-color:#06B8D4"/>
			<stop  offset="1" style="stop-color:#00B7D3"/>
		</linearGradient>
		<path style="fill:url(#SVGID_2_);" d="M689.307,426.2h9.666l-25.4,43.736h11.256l-17.39,29.93l-6.692-11.525h8.99l-20.296-34.932
			h7.723l-20.313-34.983l-20.331,34.983h7.724l-19.469,33.512l-6.827-11.745l-12.235,21.022h4.647l-12.219,21.024h5.408
			l-8.721,15.023L560.53,507.64h6.608l-14.872-25.586h5.645l-14.889-25.637l-14.872,25.637h5.645l-14.872,25.586h6.608l-3.448,5.933
			l-11.813-20.297h8.365l-18.859-32.481h7.148l-18.86-32.498l-18.894,32.498h7.165l-18.86,32.481h8.349l-18.877,32.515h9.565
			l-12.202,21.023l-3.362-5.763h5.526l-10.884-18.725h4.816l-10.85-18.691h4.124l-10.867-18.691l-10.866,18.691h4.123l-8.619,14.854
			l-14.465-24.876h8.365l-18.843-32.397h7.166l-18.844-32.464l-18.86,32.464h7.149l-18.844,32.397h8.366l-17.018,29.304
			l-7.317-12.606h6.287l-14.196-24.421h5.391l-14.196-24.453l-14.213,24.453h5.392l-14.196,24.421h6.287l-10.359,17.862
			l-2.501-4.292h4.613l-10.41-17.931h3.954l-10.427-17.965l-10.427,17.965h3.938l-10.411,17.931h4.614l-6.083,10.461l-9.177-15.802
			h5.239l-11.848-20.397h4.512l-11.846-20.415l-11.881,20.415h4.513l-11.847,20.397h5.255l-3.802,6.523l-8.686-14.973h3.65
			l-9.616-16.528l-9.616,16.528h3.651l-9.6,16.527h4.259l-6.861,11.796l-11.221-19.316h5.17l-11.677-20.145h4.427l-11.694-20.127
			l-11.711,20.127h4.444l-11.678,20.145h5.171l-2.704,4.647l-9.277-15.953h6.574l-14.838-25.535h5.628l-14.838-25.553l-3.228,5.561
			c7.419,35.675,21.091,69.068,39.816,98.964l515.896,0.085c29.203-46.593,46.137-101.669,46.255-160.699L689.307,426.2z
			 M173.122,547.727l-4.935-8.484h5.002l-2.298,3.938h4.883L173.122,547.727z M204.352,528.714l-1.217-2.096h2.451L204.352,528.714z
			 M244.354,539.529l-0.321-0.574h0.659L244.354,539.529z M247.007,544.076l-1.301-2.23h2.603L247.007,544.076z M606.954,498.666
			l-1.437-2.468h2.855L606.954,498.666z M609.252,494.661l-3.667-6.32h7.352L609.252,494.661z"/>
		<linearGradient id="SVGID_3_" gradientUnits="userSpaceOnUse" x1="402.4844" y1="531.5342" x2="402.4844" y2="589.13">
			<stop  offset="0" style="stop-color:#9CDAE6"/>
			<stop  offset="0.2757" style="stop-color:#96D7E4"/>
			<stop  offset="0.6402" style="stop-color:#85D2DE"/>
			<stop  offset="0.6667" style="stop-color:#84D1DE"/>
			<stop  offset="1" style="stop-color:#72CDDD"/>
		</linearGradient>
		<path style="fill:url(#SVGID_3_);" d="M669.449,541.271C618.564,638.122,516.997,704.184,400,704.184
			c-113.313,0-212.159-61.971-264.48-153.854h40.306c0-9.6,7.773-17.374,17.39-17.374c7.57,0,14.01,4.851,16.392,11.628
			c1.538-1.64,3.718-2.688,6.151-2.688c4.664,0,8.433,3.786,8.433,8.434h50.987c0-3.921,3.193-7.115,7.115-7.115
			c0.777,0,1.537,0.152,2.248,0.372c2.062-2.755,5.34-4.546,9.058-4.546c6.236,0,11.306,5.053,11.306,11.289h34.594
			c0-5.561,4.512-10.09,10.106-10.09c5.577,0,10.089,4.529,10.089,10.09h27.952c0-3.921,3.194-7.115,7.115-7.115
			c1.622,0,3.109,0.558,4.309,1.471c2.012-3.718,5.948-6.236,10.462-6.236c2.349,0,4.546,0.692,6.388,1.876
			c3.143-4.462,8.332-7.369,14.195-7.369c8.095,0,14.889,5.544,16.815,13.048c0.186-0.034,0.371-0.068,0.558-0.068
			c2.45,0,4.428,1.96,4.428,4.395h56.326c0-5.442,4.429-9.87,9.887-9.87c2.84,0,5.391,1.2,7.199,3.127
			c2.789-7.927,10.343-13.622,19.232-13.622c11.238,0,20.348,9.126,20.348,20.365h86.306c0-6.271,5.104-11.374,11.392-11.374
			C665.173,538.955,667.54,539.816,669.449,541.271z"/>
	</g>
	<linearGradient id="SVGID_4_" gradientUnits="userSpaceOnUse" x1="423.96" y1="696.5098" x2="423.96" y2="619.8593">
		<stop  offset="0" style="stop-color:#B5E4FA"/>
		<stop  offset="1" style="stop-color:#00579B"/>
	</linearGradient>
	<path style="opacity:0.5;fill:url(#SVGID_4_);" d="M553.53,655.67c0,2.64-0.46,5.23-1.36,7.76
		c-44.76,25.91-96.729,40.75-152.17,40.75c-15.23,0-30.19-1.12-44.82-3.279c-36.52-9.431-60.79-26.17-60.79-45.23
		c0-29.47,58.01-53.36,129.57-53.36C495.52,602.31,553.53,626.2,553.53,655.67z"/>
	<g>
		<path style="fill:#C62828;" d="M387.356,627.345c1.067-1.364,1.508-3.204,0.899-5.027c-2.278-6.824-8.193-16.057-23.522-16.057
			c-20.479,0-33.229,7.199-40.51,13.583c-2.396,2.101-2.333,5.361-0.7,7.501H387.356z"/>
		<rect x="334.957" y="629.494" style="fill:#F5F5F5;" width="5.86" height="7.228"/>
		<rect x="370.117" y="629.494" style="fill:#F5F5F5;" width="5.86" height="7.228"/>
		<g>
			<path style="fill:#F5F5F5;" d="M388.535,639.554h-72.428c-5.331,0-9.669-4.338-9.669-9.669c0-3.555,2.891-6.446,6.446-6.446
				c3.555,0,6.446,2.892,6.446,6.446c0,1.295-1.049,2.344-2.344,2.344s-2.344-1.049-2.344-2.344c0-0.969-0.79-1.758-1.758-1.758
				s-1.758,0.789-1.758,1.758c0,2.747,2.234,4.98,4.981,4.98h72.428c1.295,0,2.344,1.049,2.344,2.345
				C390.879,638.505,389.831,639.554,388.535,639.554z"/>
		</g>
		<path style="fill:#F5F5F5;" d="M340.66,608.917c-0.835,0.325-1.248,1.267-0.922,2.102l1.878,4.843
			c0.326,0.835,1.267,1.248,2.102,0.922c0.835-0.325,1.248-1.266,0.922-2.101l-1.878-4.844
			C342.436,609.004,341.495,608.591,340.66,608.917z"/>
		<path style="fill:#F5F5F5;" d="M346.434,605.884c-0.835,0.325-1.248,1.267-0.922,2.102l3.052,7.823
			c0.326,0.836,1.267,1.248,2.102,0.922c0.835-0.325,1.248-1.266,0.921-2.101l-3.051-7.824
			C348.209,605.971,347.269,605.558,346.434,605.884z"/>
		<path style="fill:#212121;" d="M388.071,624.775h-65.256c-0.979,0-1.774,0.794-1.774,1.773v1.172c0,0.979,0.794,1.773,1.774,1.773
			h65.256c0.98,0,1.774-0.794,1.774-1.773v-1.172C389.846,625.569,389.051,624.775,388.071,624.775z"/>
	</g>
	<g>
		<path style="fill:#C62828;" d="M464.849,605.557c-1.022-0.872-1.641-2.202-1.459-3.682c0.679-5.538,3.75-13.467,15.401-15.831
			c15.565-3.158,26.366,0.347,32.884,4.076c2.146,1.227,2.601,3.715,1.688,5.593L464.849,605.557z"/>
		
			<rect x="501.063" y="599.506" transform="matrix(-0.98 0.199 -0.199 -0.98 1116.4475 1092.4269)" style="fill:#F5F5F5;" width="4.545" height="5.605"/>
		
			<rect x="474.34" y="604.927" transform="matrix(-0.98 0.199 -0.199 -0.98 1064.6143 1108.4792)" style="fill:#F5F5F5;" width="4.545" height="5.605"/>
		<g>
			<path style="fill:#F5F5F5;" d="M465.835,615.018l55.048-11.169c4.053-0.822,6.681-4.788,5.858-8.84
				c-0.549-2.702-3.191-4.453-5.894-3.905s-4.453,3.191-3.905,5.894c0.2,0.984,1.158,1.62,2.144,1.42
				c0.984-0.2,1.619-1.158,1.42-2.144c-0.149-0.735,0.329-1.457,1.064-1.606c0.736-0.149,1.458,0.329,1.607,1.064
				c0.424,2.088-0.93,4.131-3.018,4.554l-55.048,11.17c-0.985,0.199-1.62,1.158-1.421,2.143
				C463.892,614.582,464.851,615.218,465.835,615.018z"/>
		</g>
		<path style="fill:#F5F5F5;" d="M497.497,584.35c0.685,0.119,1.145,0.771,1.025,1.455l-0.681,3.971
			c-0.119,0.686-0.771,1.144-1.455,1.024c-0.686-0.118-1.144-0.77-1.024-1.454l0.681-3.971
			C496.161,584.689,496.813,584.231,497.497,584.35z"/>
		<path style="fill:#F5F5F5;" d="M492.642,582.935c0.685,0.119,1.144,0.771,1.024,1.455l-1.112,6.417
			c-0.119,0.686-0.771,1.144-1.455,1.024c-0.685-0.118-1.144-0.77-1.024-1.454l1.112-6.417
			C491.306,583.275,491.957,582.816,492.642,582.935z"/>
		<path style="fill:#212121;" d="M463.908,603.714l49.598-10.063c0.744-0.15,1.471,0.33,1.622,1.075l0.181,0.891
			c0.15,0.744-0.33,1.471-1.075,1.622l-49.598,10.063c-0.744,0.151-1.471-0.33-1.621-1.074l-0.181-0.891
			C462.683,604.592,463.164,603.865,463.908,603.714z"/>
	</g>
	<path style="fill:#FCB316;" d="M381.956,442.379L381.956,442.379l21.521,26.429L425,442.379l0,0
		C411.451,432.879,395.504,432.879,381.956,442.379z"/>
	<g>
		<g>
			<path style="fill:#212121;" d="M360.239,432.986c-6.528,0-11.821-5.293-11.821-11.821s5.292-11.82,11.821-11.82"/>
			
				<ellipse transform="matrix(0.7071 0.7071 -0.7071 0.7071 398.1764 -129.5289)" style="fill:#434343;" cx="355.443" cy="415.877" rx="2.929" ry="4.769"/>
		</g>
	</g>
	<path style="fill:#212121;" d="M273.331,481.748l-1.965,13.735l10.467,1.556c-1.95,7.431-4.493,14.616-7.544,21.53
		c-0.87,0.346-1.746,0.687-2.629,1.017c-12.695,4.021-25.887,7.748-36.82,9.85c-1.672,0.315-2.62,0.474-2.62,0.474
		c-8.132,1.401-14.796,1.785-18.727,0.52C193.998,524.172,273.331,481.748,273.331,481.748z"/>
	<path style="fill:#212121;" d="M542.186,500.71l-2.058-13.722l-10.474,1.512c-0.264-7.678,0.111-15.291,1.051-22.789
		c0.733-0.581,1.476-1.158,2.227-1.729c11.008-7.494,22.576-14.85,32.447-19.998c1.511-0.783,2.374-1.206,2.374-1.206
		c7.389-3.676,13.662-5.955,17.79-5.87C606.014,437.309,542.186,500.71,542.186,500.71z"/>
	<path style="fill:#B72025;" d="M343.356,470.688c-15.822,0-15.982,13.605-15.982,13.605l10.123,13.644h22.268h13.185
		C366.333,482.66,349.396,470.688,343.356,470.688z"/>
	<path style="fill:#D32E2E;" d="M408.988,561.518c-37.504-8.789-49.811-90.829-65.632-90.829h37.729
		c15.822,0,28.128,82.04,65.632,90.829H408.988z"/>
	<path style="fill:#D32E2E;" d="M498.615,357.089c-8.063-58.205-62.909-98.697-122.505-90.442
		c-59.594,8.255-101.371,62.13-93.308,120.335c1.854,13.393,51.67,17.558,111.264,9.303
		C453.662,388.03,500.47,370.481,498.615,357.089z"/>
	<path style="fill:#FAFBFB;" d="M492.694,334.124c-1.809-4.729-3.939-9.282-6.377-13.635c-13.94,13.422-52.108,26.873-98.144,33.25
		c-46.034,6.376-86.423,3.807-103.487-5.321c-1.163,4.852-1.975,9.813-2.43,14.855c12.729,11.853,57.072,15.879,108.451,8.762
		C442.088,364.918,483.668,348.989,492.694,334.124z"/>
	<path style="fill:#B72025;" d="M357.626,270.85c0.031,0.486,0.064,0.974,0.133,1.465c1.391,10.039,10.104,17.126,19.461,15.83
		c9.356-1.296,15.815-10.485,14.424-20.524c-0.095-0.688-0.231-1.357-0.393-2.016c-4.997,0.013-10.05,0.336-15.142,1.042
		C369.726,267.531,363.562,268.969,357.626,270.85z"/>
	<circle style="fill:#FAFBFB;" cx="376.11" cy="266.647" r="15.254"/>
</g>
</svg>
