<?xml version="1.0" encoding="iso-8859-1"?>
<!-- Generator: Adobe Illustrator 16.0.0, SVG Export Plug-In . SVG Version: 6.00 Build 0)  -->
<!DOCTYPE svg PUBLIC "-//W3C//DTD SVG 1.1//EN" "http://www.w3.org/Graphics/SVG/1.1/DTD/svg11.dtd">
<svg version="1.1" id="Layer_1" xmlns="http://www.w3.org/2000/svg" xmlns:xlink="http://www.w3.org/1999/xlink" x="0px" y="0px"
	 width="1200px" height="800px" viewBox="0 0 1200 800" style="enable-background:new 0 0 1200 800;" xml:space="preserve">
<linearGradient id="SVGID_1_" gradientUnits="userSpaceOnUse" x1="552.3127" y1="452.166" x2="552.3127" y2="570.8494">
	<stop  offset="0" style="stop-color:#5ECAE7"/>
	<stop  offset="0.1754" style="stop-color:#59C9E5"/>
	<stop  offset="0.4079" style="stop-color:#48C5E2"/>
	<stop  offset="0.6723" style="stop-color:#2CC0DC"/>
	<stop  offset="0.9584" style="stop-color:#06B8D4"/>
	<stop  offset="1" style="stop-color:#00B7D3"/>
</linearGradient>
<path style="fill:url(#SVGID_1_);" d="M838.614,441.95h9.68l-25.437,43.798h11.271l-17.413,29.971l-6.702-11.541h9.002
	l-20.323-34.98h7.733l-20.343-35.033l-20.358,35.033h7.734l-19.497,33.559l-6.836-11.762l-12.252,21.052h4.653L727.29,533.1h5.417
	l-8.733,15.045l-14.316-24.642h6.617l-14.894-25.622h5.652l-14.909-25.672l-14.893,25.672h5.652l-14.893,25.622h6.617l-3.453,5.941
	l-11.828-20.325h8.376l-18.886-32.527h7.158l-18.887-32.544l-18.92,32.544h7.176l-18.887,32.527h8.359l-18.902,32.56h9.578
	l-12.219,21.054l-3.367-5.771h5.534l-10.899-18.751h4.823L578.5,519.492h4.13l-10.882-18.717l-10.881,18.717h4.128l-8.631,14.876
	l-14.486-24.911h8.377l-18.869-32.442h7.177l-18.87-32.51l-18.887,32.51h7.159l-18.871,32.442h8.377l-17.042,29.345l-7.327-12.624
	h6.295l-14.216-24.455h5.398l-14.215-24.487l-14.233,24.487h5.399l-14.216,24.455h6.296l-10.374,17.887l-2.504-4.298h4.62
	l-10.425-17.955h3.959l-10.442-17.99l-10.441,17.99h3.943l-10.425,17.955h4.62l-6.092,10.476l-9.189-15.823h5.246l-11.864-20.426
	h4.518l-11.863-20.444l-11.897,20.444h4.519l-11.863,20.426h5.263l-3.808,6.532l-8.698-14.993h3.655l-9.629-16.552l-9.629,16.552
	h3.656l-9.613,16.55h4.265l-6.872,11.813l-11.236-19.343h5.178l-11.694-20.173h4.433l-11.71-20.155l-11.728,20.155h4.451
	l-11.695,20.173h5.179l-2.708,4.653l-9.29-15.975h6.583l-14.859-25.571h5.636l-14.859-25.589l-3.232,5.569
	c-0.941,37.935,0.805,67.793,0,99.187h602.81c1.662-48.085-0.118-101.812,0-160.924L838.614,441.95z M321.706,563.646l-4.941-8.495
	h5.01l-2.302,3.942h4.89L321.706,563.646z M352.98,544.607l-1.218-2.1h2.454L352.98,544.607z M393.037,555.438l-0.321-0.575h0.66
	L393.037,555.438z M395.695,559.991l-1.303-2.234h2.606L395.695,559.991z M756.146,514.517l-1.439-2.471h2.86L756.146,514.517z
	 M758.447,510.507l-3.672-6.329h7.362L758.447,510.507z"/>
<linearGradient id="SVGID_2_" gradientUnits="userSpaceOnUse" x1="572.8953" y1="712.6377" x2="572.8953" y2="635.8799">
	<stop  offset="0" style="stop-color:#B5E4FA"/>
	<stop  offset="1" style="stop-color:#00579B"/>
</linearGradient>
<path style="opacity:0.5;fill:url(#SVGID_2_);" d="M702.647,671.74c0,2.644-0.46,5.238-1.361,7.771
	c-44.823,25.946-96.865,40.807-152.384,40.807c-15.251,0-30.232-1.122-44.883-3.283c-36.571-9.444-60.875-26.208-60.875-45.295
	c0-29.511,58.091-53.435,129.751-53.435C644.555,618.306,702.647,642.229,702.647,671.74z"/>
<g>
	<g>
		<path style="fill:#F5F5F5;" d="M518.977,645.528"/>
		<path style="fill:#F5F5F5;" d="M497.365,622.808c-0.326-0.836-1.268-1.249-2.104-0.923c-0.836,0.325-1.25,1.269-0.923,2.104"/>
		<path style="fill:#F5F5F5;" d="M499.497,632.747"/>
	</g>
</g>
<g id="Body">
	<g id="Feet">
		<path style="fill:#D68F43;" d="M525.266,649.379c0,11.928-13.871,21.595-30.98,21.595c-17.112,0-30.983-9.667-30.983-21.595
			c0-11.926,13.871-21.596,30.983-21.596C511.395,627.783,525.266,637.453,525.266,649.379z"/>
		<path style="fill:#D68F43;" d="M653.037,644.153c0,11.928-13.871,21.596-30.981,21.596c-17.113,0-30.984-9.668-30.984-21.596
			c0-11.927,13.871-21.596,30.984-21.596C639.166,622.558,653.037,632.227,653.037,644.153z"/>
	</g>
	<path id="black-body" style="fill:#333333;" d="M671.542,538.219c0,64.862-50.665,117.445-113.163,117.445
		c-62.496,0-113.162-52.583-113.162-117.445c0-64.864,50.666-117.446,113.162-117.446
		C620.878,420.772,671.542,473.354,671.542,538.219z"/>
	<path id="white-body" style="fill:#F1F1F1;" d="M643.569,572.32c0,46.577-37.861,84.333-84.565,84.333
		s-84.566-37.756-84.566-84.333c0-46.575,37.863-84.334,84.566-84.334C605.707,487.986,643.569,525.744,643.569,572.32z"/>
	<path id="right-arm" style="fill:#333333;" d="M483.779,462.976c-34.658,0.402-58.702,21.264-72.133,62.587
		c-10.829,33.322,14.542,20.079,76.115-39.722C492.862,480.884,491.537,473.263,483.779,462.976z"/>
	<path id="left-arm" style="fill:#333333;" d="M630.245,459.553c33.148,0.403,56.147,21.263,68.994,62.59
		c10.359,33.319-13.908,20.075-72.802-39.725C621.558,477.466,622.822,469.843,630.245,459.553z"/>
</g>
<path style="fill:#333333;" d="M640.677,411.438c0,41.238-38.573,74.669-86.154,74.669c-47.582,0-86.156-33.431-86.156-74.669
	c0-41.239,38.574-74.669,86.156-74.669C602.104,336.769,640.677,357.917,640.677,411.438z"/>
<g id="Beak">
	<path id="beak-bottom" style="fill:#9E6B35;" d="M554.867,447.159l14.874-11.997h-29.747L554.867,447.159z"/>
	<path id="beak-top" style="fill:#D68F43;" d="M554.688,416.9l16.687,18.234h-33.371L554.688,416.9z"/>
</g>
<g id="Eyes">
	<path style="fill:#F1F1F1;" d="M543.386,407.557c0,10.792-8.677,19.54-19.379,19.54c-10.703,0-19.379-8.748-19.379-19.54
		c0-10.786,8.677-19.535,19.379-19.535C534.709,388.022,543.386,396.771,543.386,407.557z"/>
	<path style="fill:#F1F1F1;" d="M607.445,408.859c0,10.789-8.674,19.535-19.379,19.535c-10.7,0-19.376-8.746-19.376-19.535
		c0-10.787,8.676-19.535,19.376-19.535C598.771,389.324,607.445,398.071,607.445,408.859z"/>
	<path style="fill:#333333;" d="M530.747,415.373c0,2.447-1.892,4.43-4.225,4.43c-2.335,0-4.226-1.982-4.226-4.43
		s1.891-4.43,4.226-4.43C528.857,410.942,530.747,412.926,530.747,415.373z"/>
	<path style="fill:#333333;" d="M588.534,415.712c0,2.447-1.891,4.431-4.223,4.431s-4.226-1.983-4.226-4.431
		c0-2.446,1.894-4.429,4.226-4.429S588.534,413.266,588.534,415.712z"/>
	<g id="Eyebrows">
		<path style="fill:#333333;" d="M502.03,341.578h43.027v46.171H502.03V341.578z"/>
		<path style="fill:#333333;" d="M566.778,342.676h43.03v46.167h-43.03V342.676z"/>
	</g>
</g>
<g id="Scarf">
	<path style="fill:#FFFFFF;" d="M475.391,449.344c0,0-11.481,5.052-6.781,19.578c4.696,14.523,56.905,22.42,56.905,22.42
		s60.822,3.159,74.396-0.314c13.574-3.473,42.288-26.843,42.288-26.843s1.567-11.998-11.748-13.577
		C617.136,449.026,602.776,482.82,475.391,449.344z"/>
	<path style="fill:#BE2B26;" d="M482.391,451.137c0,0-10.03,23.403-4.785,26.468c5.245,3.065,12.548,5.427,12.548,5.427
		s10.408-27.604,8.566-28.002C496.881,454.63,488.598,452.087,482.391,451.137z"/>
	<path style="fill:#BE2B26;" d="M516.629,458.554c0,0-8.617,28.682-6.579,29.763c2.037,1.083,16.422,3.131,16.422,3.131
		s9.533-29.462,7.69-29.861C532.324,461.188,522.833,459.503,516.629,458.554z"/>
	<path style="fill:#BE2B26;" d="M554.351,463.466c0,0-7.12,27.306-5.082,28.387c2.037,1.08,20.436,0.817,20.436,0.817
		s6.822-28.611,4.279-28.645C571.44,463.991,561.008,464.105,554.351,463.466z"/>
	<path style="fill:#BE2B26;" d="M596.599,461.834c0,0,3.202,28.57,4.595,28.808c1.396,0.236,13.989-6.72,13.989-6.72
		s2.208-29.17-0.334-27.949C612.304,457.194,604.638,459.822,596.599,461.834z"/>
	<path style="fill:#BE2B26;" d="M624.605,451.6c0,0,3.57,22.107,4.967,22.344c1.393,0.236,12.526-9.655,12.526-9.655
		s-6.096-12.06-6.403-12.125C635.387,452.101,631.077,448.912,624.605,451.6z"/>
</g>
<path style="fill:#333333;" d="M475.847,380.965c0,0,36.511-32.773,46.365-19.107c6.929,9.607,5.528,32.484,33.406,30.362
	c19.436-1.481,20.918-19.817,26.44-28.237c11.626-17.733,52.877,20.604,52.877,20.604s0.799-49.86-78.104-60.009
	c-7.816-0.248-31.365-5.323-44.102-13.046c-14.583-8.844-17.955-20.472-17.955-20.472s0.509,12.655,4.41,19.323
	c6.417,10.973,16.06,16.25,16.06,16.25s-7.213,0.209-15.478-0.712c-6.698-0.746-12.152-4.607-12.152-4.607s3.111,5.835,8.605,8.659
	c6.947,3.574,14.494,5.192,14.494,5.192s-5.697,3.344-8.866,5.872C480.756,357.855,475.847,380.965,475.847,380.965z"/>
</svg>
